<mxfile host="app.diagrams.net" modified="2024-03-22T01:54:42.674Z" agent="Mozilla/5.0 (Windows NT 10.0; Win64; x64) AppleWebKit/537.36 (KHTML, like Gecko) Chrome/122.0.0.0 Safari/537.36" etag="V4Tw1xiFZSvOVZJQdZrg" version="24.0.7" type="google">
  <diagram name="Page-1" id="8mGGfwsUY2B6Y7zW4h-k">
    <mxGraphModel grid="1" page="1" gridSize="10" guides="1" tooltips="1" connect="1" arrows="1" fold="1" pageScale="1" pageWidth="850" pageHeight="1100" math="0" shadow="0">
      <root>
        <mxCell id="0" />
        <mxCell id="1" parent="0" />
        <mxCell id="1CU7VQPBwAnRF_aU25im-18" value="AWS Cloud" style="sketch=0;outlineConnect=0;gradientColor=none;html=1;whiteSpace=wrap;fontSize=12;fontStyle=1;shape=mxgraph.aws4.group;grIcon=mxgraph.aws4.group_aws_cloud;strokeColor=#333333;fillColor=none;verticalAlign=top;align=left;spacingLeft=30;fontColor=#AAB7B8;dashed=0;" vertex="1" parent="1">
          <mxGeometry x="160" y="170" width="880" height="480" as="geometry" />
        </mxCell>
        <mxCell id="1CU7VQPBwAnRF_aU25im-8" value="VPC" style="sketch=0;outlineConnect=0;gradientColor=none;html=1;whiteSpace=wrap;fontSize=12;fontStyle=1;shape=mxgraph.aws4.group;grIcon=mxgraph.aws4.group_vpc;strokeColor=#97D077;fillColor=none;verticalAlign=top;align=left;spacingLeft=30;fontColor=#879196;dashed=0;" vertex="1" parent="1">
          <mxGeometry x="470" y="200" width="420" height="420" as="geometry" />
        </mxCell>
        <mxCell id="1CU7VQPBwAnRF_aU25im-4" value="VPC" style="sketch=0;outlineConnect=0;gradientColor=none;html=1;whiteSpace=wrap;fontSize=12;fontStyle=1;shape=mxgraph.aws4.group;grIcon=mxgraph.aws4.group_vpc;strokeColor=#97D077;fillColor=none;verticalAlign=top;align=left;spacingLeft=30;fontColor=#879196;dashed=0;" vertex="1" parent="1">
          <mxGeometry x="300" y="330" width="140" height="290" as="geometry" />
        </mxCell>
        <mxCell id="1CU7VQPBwAnRF_aU25im-33" style="edgeStyle=orthogonalEdgeStyle;rounded=0;orthogonalLoop=1;jettySize=auto;html=1;" edge="1" parent="1" source="1CU7VQPBwAnRF_aU25im-2" target="1CU7VQPBwAnRF_aU25im-21">
          <mxGeometry relative="1" as="geometry" />
        </mxCell>
        <mxCell id="1CU7VQPBwAnRF_aU25im-2" value="Mobile/Web Client" style="verticalLabelPosition=bottom;aspect=fixed;html=1;shape=mxgraph.salesforce.web;" vertex="1" parent="1">
          <mxGeometry x="50" y="380" width="88.61" height="70" as="geometry" />
        </mxCell>
        <mxCell id="1CU7VQPBwAnRF_aU25im-35" style="edgeStyle=orthogonalEdgeStyle;rounded=0;orthogonalLoop=1;jettySize=auto;html=1;endArrow=block;endFill=1;strokeWidth=1;" edge="1" parent="1" source="1CU7VQPBwAnRF_aU25im-6" target="1CU7VQPBwAnRF_aU25im-20">
          <mxGeometry relative="1" as="geometry" />
        </mxCell>
        <mxCell id="1CU7VQPBwAnRF_aU25im-6" value="Authorizer" style="sketch=0;outlineConnect=0;fontColor=#232F3E;gradientColor=none;fillColor=#ED7100;strokeColor=none;dashed=0;verticalLabelPosition=bottom;verticalAlign=top;align=center;html=1;fontSize=12;fontStyle=0;aspect=fixed;pointerEvents=1;shape=mxgraph.aws4.lambda_function;" vertex="1" parent="1">
          <mxGeometry x="333" y="500" width="74" height="74" as="geometry" />
        </mxCell>
        <mxCell id="1CU7VQPBwAnRF_aU25im-38" style="edgeStyle=orthogonalEdgeStyle;rounded=0;orthogonalLoop=1;jettySize=auto;html=1;" edge="1" parent="1" source="1CU7VQPBwAnRF_aU25im-7" target="1CU7VQPBwAnRF_aU25im-13">
          <mxGeometry relative="1" as="geometry" />
        </mxCell>
        <mxCell id="1CU7VQPBwAnRF_aU25im-39" style="edgeStyle=orthogonalEdgeStyle;rounded=0;orthogonalLoop=1;jettySize=auto;html=1;" edge="1" parent="1" source="1CU7VQPBwAnRF_aU25im-7" target="1CU7VQPBwAnRF_aU25im-9">
          <mxGeometry relative="1" as="geometry" />
        </mxCell>
        <mxCell id="1CU7VQPBwAnRF_aU25im-7" value="NLB" style="sketch=0;outlineConnect=0;fontColor=#232F3E;gradientColor=none;fillColor=#8C4FFF;strokeColor=none;dashed=0;verticalLabelPosition=bottom;verticalAlign=top;align=center;html=1;fontSize=12;fontStyle=0;aspect=fixed;pointerEvents=1;shape=mxgraph.aws4.network_load_balancer;" vertex="1" parent="1">
          <mxGeometry x="490" y="390.5" width="49" height="49" as="geometry" />
        </mxCell>
        <mxCell id="1CU7VQPBwAnRF_aU25im-9" value="Private subnet" style="points=[[0,0],[0.25,0],[0.5,0],[0.75,0],[1,0],[1,0.25],[1,0.5],[1,0.75],[1,1],[0.75,1],[0.5,1],[0.25,1],[0,1],[0,0.75],[0,0.5],[0,0.25]];outlineConnect=0;gradientColor=none;html=1;whiteSpace=wrap;fontSize=12;fontStyle=0;container=1;pointerEvents=0;collapsible=0;recursiveResize=0;shape=mxgraph.aws4.group;grIcon=mxgraph.aws4.group_security_group;grStroke=0;strokeColor=#00A4A6;fillColor=#E6F6F7;verticalAlign=top;align=left;spacingLeft=30;fontColor=#147EBA;dashed=0;" vertex="1" parent="1">
          <mxGeometry x="580" y="220" width="280" height="180" as="geometry" />
        </mxCell>
        <mxCell id="1CU7VQPBwAnRF_aU25im-41" value="Security Group" style="fontStyle=0;verticalAlign=top;align=center;spacingTop=-2;fillColor=none;rounded=0;whiteSpace=wrap;html=1;strokeColor=#FF0000;strokeWidth=2;dashed=1;container=1;collapsible=0;expand=0;recursiveResize=0;" vertex="1" parent="1CU7VQPBwAnRF_aU25im-9">
          <mxGeometry x="20" y="30" width="240" height="134" as="geometry" />
        </mxCell>
        <mxCell id="1CU7VQPBwAnRF_aU25im-12" value="ECS" style="sketch=0;points=[[0,0,0],[0.25,0,0],[0.5,0,0],[0.75,0,0],[1,0,0],[0,1,0],[0.25,1,0],[0.5,1,0],[0.75,1,0],[1,1,0],[0,0.25,0],[0,0.5,0],[0,0.75,0],[1,0.25,0],[1,0.5,0],[1,0.75,0]];outlineConnect=0;fontColor=#232F3E;fillColor=#ED7100;strokeColor=#ffffff;dashed=0;verticalLabelPosition=bottom;verticalAlign=top;align=center;html=1;fontSize=12;fontStyle=0;aspect=fixed;shape=mxgraph.aws4.resourceIcon;resIcon=mxgraph.aws4.ecs;" vertex="1" parent="1CU7VQPBwAnRF_aU25im-41">
          <mxGeometry x="20" y="28" width="78" height="78" as="geometry" />
        </mxCell>
        <mxCell id="1CU7VQPBwAnRF_aU25im-11" value="Fargate" style="sketch=0;points=[[0,0,0],[0.25,0,0],[0.5,0,0],[0.75,0,0],[1,0,0],[0,1,0],[0.25,1,0],[0.5,1,0],[0.75,1,0],[1,1,0],[0,0.25,0],[0,0.5,0],[0,0.75,0],[1,0.25,0],[1,0.5,0],[1,0.75,0]];outlineConnect=0;fontColor=#232F3E;fillColor=#ED7100;strokeColor=#ffffff;dashed=0;verticalLabelPosition=bottom;verticalAlign=top;align=center;html=1;fontSize=12;fontStyle=0;aspect=fixed;shape=mxgraph.aws4.resourceIcon;resIcon=mxgraph.aws4.fargate;" vertex="1" parent="1CU7VQPBwAnRF_aU25im-41">
          <mxGeometry x="140" y="28" width="78" height="78" as="geometry" />
        </mxCell>
        <mxCell id="1CU7VQPBwAnRF_aU25im-13" value="Private subnet" style="points=[[0,0],[0.25,0],[0.5,0],[0.75,0],[1,0],[1,0.25],[1,0.5],[1,0.75],[1,1],[0.75,1],[0.5,1],[0.25,1],[0,1],[0,0.75],[0,0.5],[0,0.25]];outlineConnect=0;gradientColor=none;html=1;whiteSpace=wrap;fontSize=12;fontStyle=0;container=1;pointerEvents=0;collapsible=0;recursiveResize=0;shape=mxgraph.aws4.group;grIcon=mxgraph.aws4.group_security_group;grStroke=0;strokeColor=#00A4A6;fillColor=#E6F6F7;verticalAlign=top;align=left;spacingLeft=30;fontColor=#147EBA;dashed=0;" vertex="1" parent="1">
          <mxGeometry x="580" y="420" width="280" height="176" as="geometry" />
        </mxCell>
        <mxCell id="1CU7VQPBwAnRF_aU25im-42" value="Security Group" style="fontStyle=0;verticalAlign=top;align=center;spacingTop=-2;fillColor=none;rounded=0;whiteSpace=wrap;html=1;strokeColor=#FF0000;strokeWidth=2;dashed=1;container=1;collapsible=0;expand=0;recursiveResize=0;" vertex="1" parent="1CU7VQPBwAnRF_aU25im-13">
          <mxGeometry x="20" y="30" width="240" height="130" as="geometry" />
        </mxCell>
        <mxCell id="1CU7VQPBwAnRF_aU25im-15" value="ECS" style="sketch=0;points=[[0,0,0],[0.25,0,0],[0.5,0,0],[0.75,0,0],[1,0,0],[0,1,0],[0.25,1,0],[0.5,1,0],[0.75,1,0],[1,1,0],[0,0.25,0],[0,0.5,0],[0,0.75,0],[1,0.25,0],[1,0.5,0],[1,0.75,0]];outlineConnect=0;fontColor=#232F3E;fillColor=#ED7100;strokeColor=#ffffff;dashed=0;verticalLabelPosition=bottom;verticalAlign=top;align=center;html=1;fontSize=12;fontStyle=0;aspect=fixed;shape=mxgraph.aws4.resourceIcon;resIcon=mxgraph.aws4.ecs;" vertex="1" parent="1CU7VQPBwAnRF_aU25im-42">
          <mxGeometry x="20" y="26" width="78" height="78" as="geometry" />
        </mxCell>
        <mxCell id="1CU7VQPBwAnRF_aU25im-14" value="Fargate" style="sketch=0;points=[[0,0,0],[0.25,0,0],[0.5,0,0],[0.75,0,0],[1,0,0],[0,1,0],[0.25,1,0],[0.5,1,0],[0.75,1,0],[1,1,0],[0,0.25,0],[0,0.5,0],[0,0.75,0],[1,0.25,0],[1,0.5,0],[1,0.75,0]];outlineConnect=0;fontColor=#232F3E;fillColor=#ED7100;strokeColor=#ffffff;dashed=0;verticalLabelPosition=bottom;verticalAlign=top;align=center;html=1;fontSize=12;fontStyle=0;aspect=fixed;shape=mxgraph.aws4.resourceIcon;resIcon=mxgraph.aws4.fargate;" vertex="1" parent="1CU7VQPBwAnRF_aU25im-42">
          <mxGeometry x="140" y="26" width="78" height="78" as="geometry" />
        </mxCell>
        <mxCell id="1CU7VQPBwAnRF_aU25im-17" value="ECR" style="sketch=0;points=[[0,0,0],[0.25,0,0],[0.5,0,0],[0.75,0,0],[1,0,0],[0,1,0],[0.25,1,0],[0.5,1,0],[0.75,1,0],[1,1,0],[0,0.25,0],[0,0.5,0],[0,0.75,0],[1,0.25,0],[1,0.5,0],[1,0.75,0]];outlineConnect=0;fontColor=#232F3E;fillColor=#ED7100;strokeColor=#ffffff;dashed=0;verticalLabelPosition=bottom;verticalAlign=top;align=center;html=1;fontSize=12;fontStyle=0;aspect=fixed;shape=mxgraph.aws4.resourceIcon;resIcon=mxgraph.aws4.ecr;" vertex="1" parent="1">
          <mxGeometry x="347" y="210" width="78" height="78" as="geometry" />
        </mxCell>
        <mxCell id="1CU7VQPBwAnRF_aU25im-19" value="DynamoDB" style="sketch=0;points=[[0,0,0],[0.25,0,0],[0.5,0,0],[0.75,0,0],[1,0,0],[0,1,0],[0.25,1,0],[0.5,1,0],[0.75,1,0],[1,1,0],[0,0.25,0],[0,0.5,0],[0,0.75,0],[1,0.25,0],[1,0.5,0],[1,0.75,0]];outlineConnect=0;fontColor=#232F3E;fillColor=#C925D1;strokeColor=#ffffff;dashed=0;verticalLabelPosition=bottom;verticalAlign=top;align=center;html=1;fontSize=12;fontStyle=0;aspect=fixed;shape=mxgraph.aws4.resourceIcon;resIcon=mxgraph.aws4.dynamodb;" vertex="1" parent="1">
          <mxGeometry x="930" y="372" width="78" height="78" as="geometry" />
        </mxCell>
        <mxCell id="1CU7VQPBwAnRF_aU25im-36" style="edgeStyle=orthogonalEdgeStyle;rounded=0;orthogonalLoop=1;jettySize=auto;html=1;" edge="1" parent="1" source="1CU7VQPBwAnRF_aU25im-20" target="1CU7VQPBwAnRF_aU25im-7">
          <mxGeometry relative="1" as="geometry" />
        </mxCell>
        <mxCell id="1CU7VQPBwAnRF_aU25im-20" value="API Gateway" style="sketch=0;points=[[0,0,0],[0.25,0,0],[0.5,0,0],[0.75,0,0],[1,0,0],[0,1,0],[0.25,1,0],[0.5,1,0],[0.75,1,0],[1,1,0],[0,0.25,0],[0,0.5,0],[0,0.75,0],[1,0.25,0],[1,0.5,0],[1,0.75,0]];outlineConnect=0;fontColor=#232F3E;fillColor=#E7157B;strokeColor=#ffffff;dashed=0;verticalLabelPosition=bottom;verticalAlign=top;align=center;html=1;fontSize=12;fontStyle=0;aspect=fixed;shape=mxgraph.aws4.resourceIcon;resIcon=mxgraph.aws4.api_gateway;" vertex="1" parent="1">
          <mxGeometry x="331" y="376" width="78" height="78" as="geometry" />
        </mxCell>
        <mxCell id="1CU7VQPBwAnRF_aU25im-34" style="edgeStyle=orthogonalEdgeStyle;rounded=0;orthogonalLoop=1;jettySize=auto;html=1;" edge="1" parent="1" source="1CU7VQPBwAnRF_aU25im-21" target="1CU7VQPBwAnRF_aU25im-20">
          <mxGeometry relative="1" as="geometry" />
        </mxCell>
        <mxCell id="1CU7VQPBwAnRF_aU25im-21" value="Cognito" style="sketch=0;points=[[0,0,0],[0.25,0,0],[0.5,0,0],[0.75,0,0],[1,0,0],[0,1,0],[0.25,1,0],[0.5,1,0],[0.75,1,0],[1,1,0],[0,0.25,0],[0,0.5,0],[0,0.75,0],[1,0.25,0],[1,0.5,0],[1,0.75,0]];outlineConnect=0;fontColor=#232F3E;fillColor=#DD344C;strokeColor=#ffffff;dashed=0;verticalLabelPosition=bottom;verticalAlign=top;align=center;html=1;fontSize=12;fontStyle=0;aspect=fixed;shape=mxgraph.aws4.resourceIcon;resIcon=mxgraph.aws4.cognito;" vertex="1" parent="1">
          <mxGeometry x="190" y="376" width="78" height="78" as="geometry" />
        </mxCell>
        <mxCell id="1CU7VQPBwAnRF_aU25im-22" value="CI/CD" style="fillColor=none;strokeColor=#5A6C86;dashed=1;verticalAlign=top;fontStyle=1;fontColor=#5A6C86;whiteSpace=wrap;html=1;" vertex="1" parent="1">
          <mxGeometry x="160" y="20" width="440" height="130" as="geometry" />
        </mxCell>
        <mxCell id="1CU7VQPBwAnRF_aU25im-51" style="edgeStyle=orthogonalEdgeStyle;rounded=0;orthogonalLoop=1;jettySize=auto;html=1;" edge="1" parent="1" source="1CU7VQPBwAnRF_aU25im-24" target="1CU7VQPBwAnRF_aU25im-18">
          <mxGeometry relative="1" as="geometry">
            <Array as="points">
              <mxPoint x="262" y="160" />
              <mxPoint x="262" y="160" />
            </Array>
          </mxGeometry>
        </mxCell>
        <mxCell id="1CU7VQPBwAnRF_aU25im-24" value="Terraform" style="shape=image;verticalLabelPosition=bottom;labelBackgroundColor=default;verticalAlign=top;aspect=fixed;imageAspect=0;image=data:image/png,iVBORw0KGgoAAAANSUhEUgAAAccAAAIACAYAAAD3+acjAAAABGdBTUEAALGPC/xhBQAAACBjSFJNAAB6JgAAgIQAAPoAAACA6AAAdTAAAOpgAAA6mAAAF3CculE8AAAAB3RJTUUH5QEdEhMP+7ytfgAAAAZiS0dEAAAAAAAA+UO7fwAAMetJREFUeNrtnWmcZGV5t2u6Z4YZhoFhGPZF2VQWtRgGqDr3rUJUNAFBDaBJ3EUTcYtGRU1ec99EhSgaX5IARgzGNUHct4gmuCuI+wYosimL7Of/VNdsTL0funqm8VWcGmZ6uruu6/e7vrlA1TnP1XXuc57TiHZ9crgWRKs7pwEAAACNRrrWhutzUXWaYVoUzR6RBACAoY9jr+89YXpLtMcOSi+L+GQAAIA4jntveH1Vul4eVu8brgV8QgAAMOxxnHBlWP2/4TolXPtEqzuXTwoAAIY9jhPeGa7/SCvHRlV2iWZvhE8MAACGPY4T/jxMbw4rnl6251MDAADiOO7qdH0rXa8Kqx8erm349AAAYNjjOGFJ18fD9YKwsk+0uqN8igAAMOxxnPDmdF0YpqfGkSuX8HwkAAAQxw3+OEzvSC/HpBdu2AEAAOLYd1W6vhlW/0O49udTBQAA4rhBpevT4XpptLo78ukCAABxHHddun6drovCdGI0e+yyAwAAQx/HyY9+/Cxc70wvLT5pAAAgjht+RZZ0fS+sPiNc+/CJAwDAsMdx/Ybm6borXV8L1/Oj1V3MJw8AAMMexwnXpuuOdH08qnJMNHvz+QYAAGDY47h+HhmuW8J1Xno5kG8BAACI46RfkmH1r8Lqvw7XTmFlTrS6fCkAADDUcVxvuH4UVk6MquwQR64ciWaPLwcAAIY7jusjafpItDtHpXV2SC98QQAAQBzHf0XWSi9vD6sfEq5t+ZYAAGDo47jhV2T9q3A9P1wHRKvLna0AAEAc19+04/pKWnlKmPaJZo/3RwIAwNDHccI6TO8OK09IL7vyzQEAAHHs77QTrmvTdVZYbeFipx0AABj6OE5+f+Tl6fqbcDWZRwIAAHHc4D3p+nSanhdV2Zd5JAAAEMcN3himC8N1UnpZxrcKAADEcdw16fpJmM4Jqx8droV8uwAAMOxxnLCbrq+H64yoOg+NVpdLrQAAMPRxnPDOdH0hTC+KI1cti2ZvDt82AAAMexwnvCG8/nh6+dP0QiABAIA4TppH/iKsfm+4DuVbBwAA4njfeeQPwnVmtLo78+0DAABxHHdd//nIy8L0nGj2eOsHAAAMfRzXb0WXrtvD68+ml8dyJAAAAHGc9NaPdN0aVr8zXPtzRAAAAHG87y/JG8J1erTHdo6qjESzxwECAEAcse/lUZWTo9Vdml7YRAAAgDjipDtbP5Kux4TV24drhKMFAIA4oqsXVt8ZrrPCdVhUnUXR6rKRAAAAccR09cJ1dVo5LUwPjSNXzWceCQBAHHGDl0RVTkkv+6YXDiAAAOKI478i60663htWHxuunTiKAACII26YR96crgzXo6PVZacdAADiiJM2EfhOWnlFmB4Zzd48jioAAOKI45Z0fSJMp6YXdtoBACCOOGmXnZv688iTmEcCABBH3ODqdP0sXe8IK8dEq7uQIw0AgDjihkutl6XpDVF1Dolmby5HHAAAccRxbwvXJeF6cXrZjaMOAIA44oa7Wm8Mqz8eVj8pXIs4+gAAiCNumEf+PFwXRtV5ZLS6vPUDAIA4Yt9Ouq4KU8QRq3aJZo8NzQEAiCP2vSe8/kF6eT5HIwAAccQNrkvXPWH1l8O1gqMSAIA44n03EbgrXBdGq8tdrQAAxBF/y1vD9Jo4YtWy9MJNOwAAxBH7rgmvv5te/iys3iFcRBIAgDhi37Gw+qPhekxYWRKt7ghHLgAAccRxbwnX28LKYVF1FvP4BwAAccQN/iBMLw8rB6cXNjUHACCO2Hdlui5J1zPC6geFi03NAQCII05sIpCud4frhKg6y6LV5VIrAABxxL7XpevMMD0mjli9bTR7HNwAAMQR+34rTKenl8M4ugEAiCNusJuuz4TVLwzXnhzlAADEESe9ZDld/x6up0Wru5ijHQCAOOKGlyxfla53hOnoaPbmc9QDABBH7O+yk65vhCvTy8M58gEAiCNueDXWHen6Ylj94nDx5g8AAOKIky61/ipdHwkrT4lWdxFnAgAAccQNu+z8Ml3vjHZnRTR77LIDAEAcsW8J10/688i9OCsAgDgSBtwwj6zD6u+G1c8I13acHQBAHBHHvTdddbi+GFXnyGh1ecEyABBHxEmRXBmm8+OIVXtme4wXLAMAcUScMLy+J728NqxeHC5+SQIAcUScmEmG1VeG60nhWsrlVgAgjoiTHv8I1yezKu0w7RjNHpdbAYA4Iva9PUxviapzWHrZnjMJAIgjYn+nnXD9JF2vDKv35WwCAOKIOOn9kWH1P3I2AQBxRLyv53I2AQBxRCSOAEAcEYkjABBHxM0ax2h1F0ery6MfAEAckThOOtYyTKfEijWLo9nj5AOAaUc0ewvS9UfEEacyjj9L10/DdH56OZrTEACm1Y9FK80wvTVd3yKOONVx7KVrdbouD6vfHK4DOCUBYKv+WnQ9KEx/k64vpqukq0cccWvEccJ70vWFcP11tLo7cooCwJRGsdXdIVzPSNcn0nVz/21EPeKIWzuOE6/GujldHwvTidHsLeCUBYAtGsVmb5u08uh0vTdd1/avZt1nbSKOuLXjOOGqdP0iXO9OL0dx+gLAliCtPDRcb8vxrS/Hft+aRBxxusSxl6516eqM37RTnxGuvTiVAWCz/Fp07Rqml6brsnTV/fWmRxxxJsRxciQ1ftNOeU60uttxagPAJkWx1V0YVo5L1xfSdXe61m7MOkQccTrGcfI8spOuT0W786ho9uZxqgPARkWx2RuN9lgzTP/Z/2N77SDrD3HE6RzH9b8kw+t7wvVv6eXAsHo0XJz9APDbl04b4RpJL7un6+zw+q7Jd6ASR5xtcVxvWP2bcL0yXHtG1ZkbrS4rAgA0oj02Gq5l4XpeWH3zA11riCPOqDiuj6Trh2HlyWFll1ixZpTt6ACG9vLpSJh2jKpzdLiu2FxrDHHEGRnHDb8k9eFodzy9LGWZABgu0suSaHeWh+mCP3T3KXHEoYrj+K/IWunlLWH1I8LFna0As/3XomtRWH1weonw+pbNHUbiiLMijutv2rH6mnSdFq5DotXdhiUEYJZFsdWdH66HpOv5YfX307VmS60pxBFnSxzX77QTrkvTyp+Flf2i2RtlSQGY8XPF0ajK3mnlT8P1qYnNwbekxBFnWxwnvDNMF4bphPSyO8sLwIydK+4cVp4YpnPTddNUrSHEEWdrHHv9h35/ka6zw+qjw7U9Sw3AjJorttP1xnT9eEteQiWOOGxxnHBlfz/F14WVw6LVnc/SAzBt54rzwspB4Xplui5NV3drrBvEEYchjhPena7Ppumvot3Zl3kkwLSaK45Ea2z3MD0nXR9N1x1bc70gjjhMcZzwhnB9IFxPTy+8ZBlg688VF6XrxDD9e7qumQ7rBHHEYYxjrz+/+FlY/c6w+lHh4tEPgKmfK46G6/Cw+px0/eB3vXSYOCJx3Dp203V5uP4xqs7+0eqOsGQBTEEY22O7huuMdH3t/l46TByROG5d70rXV8P0kjh87Q4sXQBbbLa4bZiela4vbu25InFE4rjx3hRe/3d6OZFlDGCzzxaPDa8vTtd1W2LLN+KIxHHLPx95bVj9gXAdwpIG8IBniw8Jq89L19XpWjUT1gHiiMTx/p+PvDJcZ0aru4wlDmDAKLa6O4brtf2bbTrT/dcicUTiOMCG5v2T+rth5VnR7C1kyQP4g3PFBVGVp6brq+lSuu6daec+cUTiuHHem646vP58ejma5Q/g984VV4Trw/1NN+6dqec8cUTiOLh1WH1BuB4WVuZGqzuHJRGG+NJpI6zMDde+YfVb03XnTLp8ShyROG6JnXasnB5VZ+9od+ZHs8dKCcN06bQRrbG5UZXdw8pf9jf5nzXnN3FE4vjA/UZU5elRdXZPL3NZNmEILp2OZNXZJapyXP95xVl3XhNHJI6bb6edD6frseFaGi522oHZ92vRNSdcO4Spna73hNed2XpOE0ckjpvRsPqOcJ0VrlZUne2YR8Ismi0uCNdh4Xp9WP2b2X4uE0ckjlsikq6r0spLw/TwWL52HksrzODZ4tyw+uC08uwYf+nwUJzDxBGJ45b1krDyF+llP5ZZmHmzRe0fVk4Kqz83kx/LII5IHKflr8i6pOs9YfUJ4WKnHZj+vxbb9S5h9RP7c8XbZ8OjGcQRieM03WknXDek68xwPTZa3W1ZgmHaRbEqi8P16DSdGVZf3d9neCjPWeKIxHFqXZ2uK9L02qjKYdHsMY+E6TFXrPTIHN8H9evT8f2KxBGJ43B4T7o+E6bT0sv+LM+wFeeKDw7XC8P1yf7uNpyfxBGJ41bfr/XX6fpQWP20cC1lqYYpnCsujap+arrel+OX/NdyThJHJI7T7VLrlek6L6wcHa3uApZu2IJzxYVh8nCdk+OPZqziHCSOSBynsyVd30nTGdHuHBTN3ihLOWzGueJItDr7hdVnpOvb6ao554gjEseZ5O3h+nK6XppedmZZh80wV9w+XS8Jr/8nXbdzjhFHJI4zeR55U1j93+E6LlxcaoVNmSuORrt+Ylj9qXTdxFyROCJxnC2uSdcN4fpgVJ2DotVlQ3PY2NniQ8J1Ybqu78+1OZ+IIxLHWefKdN0YpjNi+b07sPTD/cwWtwur35Cua/tvi+H8IY5IHGe9Y+H1lenlmWQAfsc59qzw+jv9m7s4X4gjEsfh2oouXWNh9VfDtSJcc6LVpQzDeel0/B2L7boVVn82XRrGfVCJIxJH/G074fqPaI/tH1WZH80e748cjkunjag0L6w8LFznsrMNcUTiiL/bX4XpNdEa2zu9bEM+ZvWl0/nRHtszTK9M1y859okjEkf8A3e2huvydD0jrN41XGxqPrsey5gXVb1Lup4eXn+NnW2IIxJHHHCnnbD6w+E6NqzsHK0uO+3M7LniaJh2CtPjwur3s7MNcUTiiA/Mm8J1dlhpRbuzA/PIGTdXnBOtznZhaofrzP7zihzXxBGJI24mvxemvwkrzfTCTjszY644L02PCNOL0/U9jmHiiMQRt9wmApeE6Xnh2jdcXGqdnnPFOdGuHxxW/3m6Ps9D/MQRiSNOjXen68JwnRxVZ6dodbnUOn1mi0vDdUKa3s2jGcQRiSNuHa9P19lhemwcto5HP7bubHF+WH10us5K1zUcm8QRiSNufS8L09+ml+VkaqvMFpeH6VXp+kbyxgziiMQRp9cuO+n6XFj90nDtRbKmZLa4T1j9gnR9pn+pmy3fiCMSR5ym+7Xemq73h+vPo9XdnoRtgSi6dg3X09L13nTdyK9F4ojEkTjOkF120nV1us6Lqhwdzd58krYZotjqbhumP0rXO9N1Zf/uYY434ojEkTjOwEut3w7Xm9PLoeRtk2+2mZdV5xHhemN/az9xbBFHJI7EceZfar0zXV8Jq18Srl3I3QA321jZI0wvT9OX0nV7uu7lmCKOSByJ4+xxbbpuTtenw8oJ0epuS/rud664fbieGq6PpeuW/qVqjiPiiMSROM5SV6Xr12m6INqdw6LZm0sK7zNXnBdVWR5Wvztdv2auSBwRieNw2Q2vf5muM9LLrswVe3PyqJV7puuM8PoX6RrjGCGOiMRxeOeR3bD6Z+F6WriGckPztDKaVp4XVv8kx/dB5XlF4ohIHFHrcvwly1+LqrM8rcyNZm+2Xz6dE1aPhusx4fpif6ZIFIkjInHE3+vb4siV+6SV+bPy8qlrm6g6B4XV7+zPYPnOiSMiccQ/bHh9W1p5UZh2Cdf8WXL5dEG0xvZN1+vC6+t5LIM4IhJH3KSddsL0jXD9abh2jVZ3Rt7ZGq754dotrTw7rL6MX4vEEZE44uZQ4fpAWjkmrewUzd7IDJkrjvZ/+T4pXBfl+ObgfJ/EEZE44mb1V+l6Y1SllVa2n8ZzxZGsOkvD5GF6W45vDs73RxwRiSNuuUut6fpuml4WpkPCtXCazRUXRVWWp+m16fpuulbznQ13HK/ig0DiiFNona5Ph+s5YWXfrT2P7M8VD0zX89N0SboK3xE2stKf5fg19Vv5QJA44hR6U7ouTNcJWXV2nup5ZLS6I1GV3cLqk9P1wRzfP5bvBcfjGK3unKg6e6TrFen6LH81IXHEKfZHYTo7TEenlW2nYK44J49ctThdx4bpn7h6hr8zjpMuLcwL1yPT6kjXZVxvR+KIU+jqdH0tTK8L18PDNXcLzRXnpJUjwpT9dY5HM/D+47g+kla2CyuPT9Pb+YsKiSNOsXem6zPhenG0x3aLVnfOZpwt7huu03J8y7eazxoHiuP625lbnd3S9NR0vTddt/FhIXHEKfTGdH04XSdGs7fwAc4Wl4TVp6TrIzn+Kik+X9y0OE46qOamlf3T9bx0XZK8igWJI071PNLrd6WVozZhtrggXY8Nr8/vH3ts+YabJ46TLkcsTKsfnqbXpOtHOf5mcD5AJI44Fa5M17fClOE6YCNni48I01npuqJ/kyFvzcDNH8dJ88glWZVWms5O1y18gEgccYpcl6470nVpuJ53/2Gsj0/X5/vzS34t4paP4/p5ZLvsnFaOTtfHudSKxBGn0LXp+uQfOM5ew3PbOOVxvM880rVbuJ6aVv+Iv9CII3HEKfJ//8Bx9rfcRIhbLY6Tt15Kq3cJK6en13fwoRJH4ojEEYc+jpPmkfPzyJX7ZKV388ESR+KIxBGJ40QgD1vXiHZnNKrO8nR9tb/7BHeJEUfiiMQRhzeOv/34R7ienlb/tH/TDpEkjsQRiSMOdxwnXW7dLUz/kF7/gjtbiSOfExJHJI4bHv+Ym63OYWm6IMe3hWKzX+KISBxxuOM46fGPbdPKien6VI6/O42ddogjInHE4Y7jpHnkrmn1S9L15f4uFswjiSMiccThjuOkeeShaXpTui5PV4cvhDgiEkcc+jj255HzsyrHpOlf03V1utbwxRBHROKIQx3HSfPI7dP15+l6X47vi8ilVuKISBxxuOM4aR65V38e+Vke/SCOiMQRieN955HL0/S3abqML4o4IhJHJI4TgVx+74Ks9Nh0vTVd1/OFEUdE4ohDH8f+LHJOVJ2d0nVSuv49XffwxRFHJI7EEYc6jpNmkXPDtW+anpuuS9hlhzgicSSOOPRxnDSLXBBWHpmmV6bp+3yJxBGJI3HEoY9j/9nIOdnq7JBWjkrX2Tm+FR1fKHFE4kgccXjjOGkeOZJWlqXrcWn1xeyyQxyROBJHHPo4TppHzkurdw7TM9L1bXbZIY5IHPmccOjjOGkeOT9b3T2z0mvS9Wu+YOKIxBFx6OPYn0c2sirzoj22b7rey6VW4ojEEXHo4/g7LrkenlZ/tR9J9msljkgcEYnjpEuuz0qvr+SXJHFE4ohIHO+zHd3aHbPSGTm+FV2XA4A4InFEHPo4Tjz+EVXn4HR9IF3XcWcrcUTiiDj0cZw0i1yQVh+XVn8uXTel614OCOKIxBFxqOM4aRa5S5helq4vpet2DgriiMQRsQGNRjR7o9nqHJymM9J1RboKBwdxROKIxBHG55EL0sox6Tq3v5Cv5iAhjkgckTjC+DxyaVp9Sro+2N9ph3kkcUTiiMQR+vPI/dN0Wpo+na6aA4Y4InFE4gjj88h5WZXD0nR6fx7JpVbiiMQRiSP055Hbpuux6XpzWn1jshUdcUTiiMQR1s8jl6XVx6frPek1W9ERRySOSBxh0jxyv7TyF2m6hAOJOCJxROIIE4E8fO38rHRoWnlpuq4mjsQRiSMSRxifRc6JqrNduo5K11lp9Z3EkTgicUTiCOOzyJG0emmaHpuui3P43vpBHJE4InGE3zuLnBvtzm5Zlael6ZvEkTgicUTiCOPPRjay1ZmXVWevtHJ6um4kjsQRiSMSRxifRzbSymi4HppWvytdd8/i5yOJIxJHJI6wSZdcj0mvP5+ue3L27ddKHJE4InGETb7kujCr8ux0fSfHX421jjgiEkckjjB+yXVZus7sB2MlcUQkjkgcYcMjIIek1R9I17XpWkscEYkjEkfYMI98cnr93zn+/kjiiEgckThCNHuNOHzNkqz0knR9JV13EUdE4ojEEcZnkSNZdQ5I11npumwG7bRDHJE4InGELT6L3CatflRafX4/KmuIIyJxROII47PIpWl6epreP8132iGOSByROMKUziNHs93ZN01/ma7P9nfaIY5IHIkjEkeIVnd+WjksXa/tzyNXEUckjsQRiSOMzyO3T6sfk6az03XNNNmKjjgicUTiCNNiHrl7WnlSmi6cBo9+EEckjkgcYRrNIyvtm1aelq5Lt+KlVuKIxBGJI0zDeaTr4HS9KK3+ZU79hubEEYkjEkeYtvPI7dLqQ8PK2el1IY5IHBGJI0x+PrLdsTRdTByROCISR2j092pdsXo0q7JzWjkxXT8ijkgcEYkjjM8iG1l15qZr93S9Mq2+jTgicUQkjjA+i2yk1SNh5YB0vTO9vnszPx9JHJE4InGEGX3JdV62O49O06fSpc0USeKIxBGJI8yKS67bpZXn9reiqx/g4x/EEYkjEkeYVZdc906rz0jXT9LV2cRIEkckjkgcYVY+/nFUut6drp+nazVxROKIxBFgfB65ICs9OV0fTddNA8wjiSMSRySOMOvnkTum66/TdUm67iGOSByROAJsmEfun1a/OV2X/4FLrcQRiSMSRxi6eeQxaTo3XT8ljkgckTgCNNZvR7c4K52Srvel6xbiiMQRiSPA+CxyJKvO3ul6cbo+ma5CHJE4InEEGJ9Fzk+rH5Gm16frW+n1/yWOSByROAKMzyK3z/F55KOIIxJHJI4AG+aRI9HsjRJHJI5IHAEGhDgicUTiCEAckTgicQQgjkgckTgCDBrHi9K1ihMPiSNOW00/D9fzWLFhKuO4JFzHp9VXcxIiccTpZV3CdEaa9g7XNqzYMLV3trpG0+ptw8rr0+uaExKJI04D35ftsUdGq7sgqsJCDVsxks3enDhi9e5Z6bx0jeXGvxoLkTjiA3Vdf8RzRVr5k2h1+aUI0yySre7crDpHpeuLOf5qLCKJxBG3ZBS7afXP0+pXhGsnVmGY7pdbt0urn5FWf6cfyXWcyEgccTO6Ml3XpevcsHIQqy7MrEha2TtNZ6Trx5M2NUckjriprknXzWn6cLbL46LZm89KCzN1Hjkv250j0nR+uq7p/8XHSY7EEQfx3nTd0R/ZnBqt7vasrjBb5pGL0spT0vWxdN2UrrWc8EgccSPmiiVdl6XVfx+uB7GawnSfKy6PqrMkWt05A/332vU+afXL0/W/6bqLeSRxJI74e1zb34nrX8JKm1UXZkocP5pWIl1HxGHrBr51Ol0r0vXGdH2bS63EkTjib/nrdP1nWn1KNHsLWHFhxjBpb9UvhOnlaeUhmzCPnJ9WPyFd56brai61EkfiOPQqTZ9L12lRld1ZaWEmx7HXnwl8MEx/Ea6BD+ioyrJ0PT1N7+sP3VkkiCNxHC5XpevytPrvol0/Ito1iyzMijhO3E12XbrOD9fx0epuN3Ak2/V+afUL+/NILrUSR+I4HF6Vprek6/Hp4tEMmHVxnPwX4PfT9Y9p5YhNeQ4pXa00nd7/32HxII7EcXZ6c7rek1aflK2xnaLZm8PKCrM5jhPW6bo0TK9NK/sPOIts5JErF6XVj0/X29N1PQsJccRZY0nTF9J1apr2i6rMZUWFYYrjxKXWW9L1iTA9O1w7DziLHAkru6XryWn6QH8rOhYX4ogz09Xp+m6aXpdVWRFVWcRKCsMax8mXWq9N1/vCyuOi1V044CxyXlb1vul6Trq+krxkmTjiTPPGNL09TY/OqrM0mr0RVlEgjhscS9fP0/XWrDoHRbM3d8D/z23TyiFpelW6rmLBIY447b07XRel64Q07RqtLpdQgTjej/eE1z8M0yvSykCvmYlmb05WZfs0tdL1z+m6lQWIOOI0fDTD6svCynPStUe4eMciEMcB9ky8O0xfDteTwzXQLhhRldF0LYmqPjat/kz/VymLEnHEre/t6Xp9tsb2j6osZLUE4rjp+yfW4bo42mMHb8JerXPT6u3T9fz0+sfsskMccSvecGP6YFSdQ9K1gEczgDhuvlfSrEzXP8TytUvTypwB/3lG44jVS9Pq7C+mbGhOHHGqXidluiJcx6Rp3qB/4AIQx400vP5NWnlOmLYL1+ig/2xRlQPT9d503dmPLgsYccTN78r0+ldRledHVbj7FGBLx7HvmjB9JVx/HK4l0eoOHsl2fUxa/ZX+hgT8kiSOuNmiqN+k60155Ko9uHwKMLVxXL/TTrguTCtHppXtB30+Kl1z0vWK9Pr7/UiyuBFH3PSH+G9J039m1TmCxzIAtm4cJ7whXX8bVecRaYPtrBHN3pw8cuXuafXZ/VdjdVjoiCMOdD/A7Wm6JE2nhGsxKyDA9Inj+KVW1+VpOjVMB2zC4x/z0tRO13vSdU3/L2EWP+KI9/NMcrq+naa/Cyv7sPIBTM84TtpEQB8N1ylhZa9BL+9Eu94+q/rktPoT6bqJxz+II/5/dtP10zS9I9tlRTR781j1AKZ/HCf8VbrOTdexWXV22oR55N7pemW6vti/s5VFkTgOu2v772V9b7pOiFZ3W1Y7gJkXxwm/F6YMK+20wXbkiGZvblZqpulN6fo280jiOKSu6+9s88m0+tRw7coqBzDz4zjx5o//CdPLwnVQuAa71FqVxf03kf9zf1PzNSyYxHFoLqGaLk3T6WHlEFY3gNkVxwnvSNfF4XputMd22YTt6HZLq09J14f676JkEwHiOJvvQr1y/C05smj25rOyAczeOE54Xf+u1CdGs7dgE/79HpamF6brv9nUnDjOOk13pOld6XpyVGUpKxrA8MRxwu+E6Z/SyuGD/jtGszcvrV6RrkjX97mrlTjOfOtuuj6fVj8z2jWPZgAMcRwnXrJ8aZhOD9e+A0fStVO6HpOmc9Jq3h9JHGeq30nTS9K1PF1s+QZAHNfPV25N12fC9ZxodZcMHMmq7JlVeXK6Lk6vudRKHGeK16brzWm151HdRdHssYABEMf/f5eddF2frg+mlT+KZm+gN5TH8nvnpevAND03rf4aCy9xnNa721j9njQ9IU078+YMAOK4sTuA/Cxc56SVgwcKZKvbiHZn27T64el6Q3+/VhZj4jidHmv6Ulp5drTLg6Jds7sNAHEc+MFnpeuKMP1NuHYfcBY5Eq4d0nRUmt6VVrPLDnHc2l6ZplenlYdl1VnI66QAiOMDnUfeM37TTnnKoFtmRVVGozW2LKtyfLo+13/fHQs1cZxKb03XueE6IistilaXS6gAxHGz7itZ0vW+bI81o9nb6F12otlrZNWZG1VntzSdmq4fsWATxym5E9vqz0dVjk3XwnARRQDiuOV+SYbX96TrzLSyZ7hGw7XR88isNBKu/dL1xv7NP+yyQxy3wFyx/n5aeXYcvnZxVIXLpwDEceoM0zXhemG4don22Gi0ugN9TlGVI9LqD6TrN2wiQBw3g6vTdUNa/XfR6u7CSgRAHLduJF1fCSvHpmvHQV+NFc3ewrTy1PT6C/29X/klSRw3ZS5+S5r+K1yPZAUCII7TzfOi3VmRVnYY9DOLVndZWv2ydH2vfwPQOhZ94rgR3pZeXxZVOY6VB4A4TuNfkfVtaeV1YTooXIsGjqTr4HS9pf8ZriSOxPH3PsTv+mG6XhqHr13CqgNAHGfETjth+na6XhCuA6PVHfh1P1GVY9LqD/W391pDHInjpL2Af5ymt0e78xAeywAgjjPREq6PpZWT0spe0eyNDhTI5fcuTtez0utPp+sm4jjUcVybrp+n6cJw/VG4FrDSABDHme5N6frnMP1xWtlpwFnkSLQ7+6TVr0rXV9N1J3Ecujjekq5PpemZUZUdWWEAiONs+8v/x2mKMLXCtd2As8j54ToyXW9K13f7+78Sx9kdxzpdX0nTq7PVecigVx4AgDjOJJWuS8P1yrBycLS6A238HFXZPisdn6bz+5uaryGOs/J5xR+k66y0UkWruw2rCgBxHBZ/k66PpetZ2R7bY5DnI6PZG8mqs1e6npGuD6XrZuI4a55XvD5N/5ZWHx8u7kIFII5D68/DdWGajk8rAz36Ea3u/Kz0sHS9LF1f7N/eTxxnpnen6aI0PTOs7MMqAkAccfzS6PfCdHa4jgjX3EE+73AtTtcRafo/afpB/519xHHmXEL9Rlr5q6zKwYNsaA8AxHFYrNP1jXD9XbTH9tyEvVqXZVUel65z0usbZ8FWdLM5juvS6hvSlOk6KlpdHs0AII64EfPIL6Xrz6LZG+z9kc3eaFrZK00nptX/la4OcZxu1p10/Uda/eho18tYMQCIIw7mteH1x9PKYwb9DqLVnZ9W75uuU9P19Rn61o/ZF0erL82qPCldzBUBiCM+wJnUlWE6J1wPGziSrkXp2j+svD6tvok4bjV/mqbT0uoDY8XqedHssVAAEEd8wPMpV0nXD8L1qmh1dxr0O4mqLM5W5/B0XUAcp/SX4u1p9VlpOjSsbMuLhwGII1HbMs/BKV1fTSsnRLM30E0ccfjakbSyJKvyxDR9nThu0blit/8cazuqerto12wQDkAcieMURPKe8PrDaaU5UCBb3Ua0O6Ph2jldp6XpWuK42b0iq/KUbHW3TxdRBADiuBW8NUxvDdcBYWXuxj7+Ea5xq7JHmt6SXt8xDW/amSlxXNd/VvXqdL0uXHtmVRrMFQGAOE6DGz7Cyl9l1dkj22MD3fARzd68rDpHpOuD/V121hDHgW6Y+nWa3hVVeQRnPwAQx+np57Iqx0fV2SWtDPb+yFZ3u6zKKem6NF13T4NfktM5jmvTdWt6/cm08ieDzn8BgDjiFBtej6Xr38LUDteScA10h2S49kzTa9L17f4NQOuI433mvXel65tp9Qui1V3KGQ8AxHEmRdJ0Q7jeEK7Doj227SZsR/fwNP1run6arpXEUavS9f10ZbgewpkOAMRxRv+S1BVp5YXpOmDQja2j2VuQVh7XfzXW9VN8qXU6xfHq9PpDURXnDAcA4ji7/FBYOTmt7Dnodxqt7pI0PT9dn+kHad2QxPHmdH0uXScNus8tAABxnDnzyDvSdU6YHh+uwXface2Xptf2b9pZPYvjeE+6Lk3Tq6M9tvugl6QBAIjjzHx/5E/SdUa4qmh1Fw4cyaqsSNM56fruLIvj6nRdnqY3huuwQd+tCQBAHGe+nXR9OV2vSCsHDTKPjGavESvWLErXcen693RdNwvieGW6zgvTE6IqXEIFAOI45N6WrovD9Ly0ssdAvyBb3TnR7uyepuem6yPpumMGxvGOdH04XU/L9thu0eyx5RsAEEdc/1D7L9P0rjAdH64lA0XSNS9NB6fpZf0XNa+eAXHs9menL0srB0WrO4+zFwCII/4ux/qvxnpbWDkyWt1tBopkVbbNqlRpynT9cJrGcW26fpKmSKuPDNcizloAII64Md6drm+l6zXZHntwNHsbvRVdNHsjWXV2SiuPT9P56bppGsXxljT9S1p5XFhZxtkKAMQRN+k5v3D9T5qelVYWD/QrstWdm1b2StfJ6fpEuuqtGMdOuj6VVp6U7bLnILEHACCO+PsuQ94QpovCdUy4BprNhWtBmvZL0wv626+tncI4rk2rf5SuZ6Vrf+aKAEAccXO7Ml3XhevcaI89aNDjIqqyKNudQ9P1f/o7z2zhONa3hZU3pNUHhGshZyYAEEfc0s9H3pCuF0Wzt91AgWz25qSVxVl1VqTp/f0bgDZ/HK2+OFtjh8aAl4IBAIgjPlAVXn8vrfzJwL8iW92RNC0O1xPTdFn/VVCbI45XhJXj0uodotmbw9kIAMQRt4br0lWH6SP97dbmDLIPabhG0rRNVOX56fVdv7Wh+cbGcV1a/euo6pdGVe8YVRmJqnAiAgBxxGnhHeF6W1SdB6eVeYP8cutvR7dzut7cf8Hymo2I4+np9U/T9a/p2oMzDwCII05nr0wrL4zW2J5pZbA7W1vd0aw6h6XpI+n62P3+Z60cHa3uQYO+oxIAgDji1nL1+POR5YQwLRv07RbhWhSuh3E2AQBxxNl6qfWCcB0dVnaMVpdNvQGAOCL2/UW6Iq0sz/bYdtxJCgDEEXGDXw3TaWnloEHnkQAAxBFns93++yNPCdfe4eJSKwAQR8SJTc3TdV64jov22A6cOQBAHBE3+NO08qZ0HRnN3nzOIAAgjogbdtq5JEyvSSs8wgEAxBFxkvek68Nhek6w6w0AEEfE+7w/8tp0vZGzCQCII+IAb+UAACCOSBwBAIgjInEEAOKISBwBgDgiEkcAII6IxBEAiCMicQQAII5IHAEAiCMSRwAA4ojEEQCAOCJxBAAgjkgcAQCIIxJHAADiiMQRAIA4InEEACCOSBwBAIgjEkcAAOKIxBEAgDgicQQAII5IHAEAiCMicQQA4ohIHAGAOCISRwAgjojEEQCAOCJxBAAgjkgcAQCIIxJHAADiiMQRAIA4InEEACCOSBwBAIgjEkcAAOKIxBEAgDgicQQAII5IHAEAiCMSRwAA4ojEEQCAOCJxBAAgjojEEQCIIyJxBADiiEgcAYA4IhJHACCOxBGJIwAAcUTiCABAHJE4AgAQRySOAADEEYkjAABxROIIAEAckTgCABBHJI4AAMQRiSMAAHFE4ggAQByROAIAEEckjgAAxBGJIwAAcUQkjgBAHBGJIwAQR0TiCADEEZE4AgBxZGFH4ggAQByROAIAEEckjgAAxBGJIwAAcUTiCABAHJE4AgAQRySOAADEEYkjAABxROIIAEAckTgCABBHJI4AAMQRiSMAAHFE4ggAQBwRiSMAEEdE4ggAxBGROAIAcUQkjgBAHFnckTgCABBHJI4AAMQRiSMAAHFE4ggAQByROAIAbJY4mr6QrjUs7kgcAQA2xPHQsPL36fUdLPBIHAEA+kRVdsyqY+m6gEUeiSMAwEQgm72RdO2cVp6Upq+z2CNxBABoNBrR6jaiPTYvTXul6yVpupZFH4kjAECj0QjXnHDNi6rsl6Z/Sq87LP5IHAEAGo1GVKURh6+dn1XniHRdlK5V6bqXECBxBAAYv+S6KKtycrq+nq4OkUTiCACw4ZLrHml6bbp+mK6xdK0jDEgcAQDGL7kemqbz03VNulYSB+LIWQEA0Gg0otlbkFYen66PpOvX7LRDHAEAYCKSre6SNL0wXV9I1+1caiWOAAAwEUnX/ml6Q/+mHS61EkcAAFgfyaocma7z0vUDokEcAQBgIpDN3sJ0nZCuD6brBuJBHAEAoNFoRKs7J9pju6XpL9P1yXTdSUSIIwAANBqNcM0N16FpenW6vpKu1cSEOAIAQKPRiKpsG1Yenaaz+psIEBXiCAAA0eyNZNVZlq7j0nRBum4iLMQRAAAajUa0unOzKg9K1zP688iawBBHAABoNBrhWpimh6Xpxen6LrvsEEcAAJiIZFUWZ1VWpCvT9StiQxwBAKDRn0da2TGteJreny4RHeIIAACNRiNa3dE0LQvXiWn6BpdaiSMAAExE0jUvTUujKn+ZXt9OgIgjAABMRLIqc+OIVXuk62ze+EEcAQBgciRb3ZFodx6epk+lq5uue4kScQQAgMb44x/hOilN3+rftMOvSeIIAACNRqMRVVmWptPT66vSVQgUcQQAgEajEc3e3Kw6h6br/6bruv7lVmJFHAEAIFrdhVmVJ6bronTdyJs/iCMAAExE0rVLmk5N0+fSdRvzSOIIAAATkazKgWn6+3R9jZ12iCMAAEwEstmbn1Za6XpHun7MpVbiCAAAE5FsdRen6SnpujBdN/B8JHEEAICJSLr2TNNz03RxusYIGnEEAICJSFbloPHnI/UlokYcAQBgIpDL790mXVWazkzXlcSNOAIAQKPRiFZ3TrQ7S9N0fLr+LV23EjniCAAAjUYjXKPh2idNT0vTJ9K1ktgRRwAAaDQaUZVtoioHp+nF6foWwSOOAADQaDSi2ZuTVWe7tLI8TW/s79dK/IgjAABEqzuSVdkxXUen6X3puosAEkcAAGg0GuGam6alYeXJ6fXX07WGEBJHAABoNBpRlblxVHe3NJ2WruuJIXEEAIBGoxHNXiOtjEZ7bO80ndO/1MpbP4gjAACsj6VreZo+la57iCRxBACAyZGsyonp9U/6kSSOAAAAjUajEcvvXZKuV6XrmnQV4ggAANAYf/wj2p2Hpun8fiRXEkcAAIBGoxGuBeF6QpouGqL3RxJHAADYiEhWZWmaTk3XF9J1C3EEAABoNBrR7I1m1TkwXa9L1zdn8U07xBEAAAaMZKu7IKti6Xp7un44C+eRxBEAADYxkq6laToxTRfMsnkkcQQAgAcYyars3Z9HXjxLNjUnjgAAsBkC2ezNSyuHpOuV6fraDL/UShwBAGAzRrLV3TZNlq4z0nT1DL3UShwBAGALRNK1U5oel6Z/Sa87xBEAAGAiklXZK6vy9DR9njgCAABMBPLwtfOy0sFp5UXpuoo4AgAANBqNaHXnRNVZlK4V6XpTWn0HcQQAAGg0GuEaSauXpOnodF2UXneJIwAAQKPRCCtzoz22S1blpDR9gzgCAAA0Go1o9hrZ6syNqrN7Wnl1um4kjgAAAI1GI1rdRloZCdf+afV56bpjKz8fSRwBAGCaxdLKY9Lrz/a3oruXOAIAADQajWj2FmZVnpmuy9OldK0jjgAAAI1GI1rdZel6U7p+nK4ucQQAAJiIpOvgtPq96fpFutYSRwAAgIlIWjkhvf7MFr6zlTgCAMAMimOz14jD1+yQlU5L1/9uofdHEkcAAJiBkWx1R7Lq7N+fR35jM88jiSMAAMzgSLq2Sas9rf7XdP0kXWuIIwAAQKPRCCs7punkNP1Hum4gjgAAAI1GI5q90Wx3HpymU9P16XTdTRwBAAAajUa0uvPTSjNdr07XN9O1kjgCAAA0Go1wLU6rH5Wmfxzw+UjiCAAAszySVnZLK3+Spnen607iCAAA0OjPIys9OK2c1H8+chVxBAAAaPTnka6HpuuFafU1v2dDc+IIAABDGEnXorT6oLDylvS6EEcAAICJSFpZku3OUWm6iDgCAAA0+nu1rlgzklVZmlaOT9cPiSMAAECj0YhWt5FVZzRcu4TrKD4R2NL8P15Ll6OmltAHAAAAJXRFWHRkYXRlOmNyZWF0ZQAyMDIxLTAxLTI5VDE4OjE5OjE1KzAwOjAwoRT1WwAAACV0RVh0ZGF0ZTptb2RpZnkAMjAyMS0wMS0yOVQxODoxOToxNSswMDowMNBJTecAAAAASUVORK5CYII=;" vertex="1" parent="1">
          <mxGeometry x="230" y="50" width="64.43" height="72.5" as="geometry" />
        </mxCell>
        <mxCell id="1CU7VQPBwAnRF_aU25im-49" style="edgeStyle=orthogonalEdgeStyle;rounded=0;orthogonalLoop=1;jettySize=auto;html=1;" edge="1" parent="1" source="1CU7VQPBwAnRF_aU25im-28" target="1CU7VQPBwAnRF_aU25im-17">
          <mxGeometry relative="1" as="geometry" />
        </mxCell>
        <mxCell id="1CU7VQPBwAnRF_aU25im-28" value="GitHubActions" style="shape=image;verticalLabelPosition=bottom;labelBackgroundColor=default;verticalAlign=top;aspect=fixed;imageAspect=0;image=data:image/png,iVBORw0KGgoAAAANSUhEUgAAAZAAAAGQCAYAAACAvzbMAAAz0UlEQVR4nOydTVbb2LfFr7Kq/6dGUGIEgREEeukFRhAYAaFnWoRW3IOMwGQEkB49nBHgjCCqEZTfCPSWnK1EMbaRpX0/tX9rZZH/q5eLP87VvufjnvOXESvJx+WOMWbPGFP//B9+1hy0XGpujJk1/v4df59W/7sYZTPySxdCCCdkvl9ACOTjcg/i8Bo/a+FwRQGR+Q5hmRWjbO7w9wshxNYMUkAgGJUH8QY/XYpFWwqIybfqZzHKCt8vSAghmgxGQPJxeWSMeQfByH2/ng7MIChfFPYSQoRA0gLSEI2jQL2MrlTeyL3ERAjhk+QEBOGpswRFYx2VmHw2xtwqbyKEcEkyApKPyxMIx57v1+KRW3glU98vRAiRPlELCEptP0A4huBttKXOldz6fiFCiHSJUkAkHK0pjDFXEhIhhA2iEhAJR2ckJEIIOtEISD4uK+G4lHD0YgohUY5ECNGb4AUkH5cHxphJpHc3QuXeGHOuy4lCiD4EKyAIV01Qjiv4zOGN3Ph+IUKIOAlSQFCSe61wlRNmxphTXUgUQmxLUAICr+Nui063gkfljXz0/SKEEPEQjICg7chEXodXKi/kWLkRIUQbghCQfFxeozw3JppzPtaxE+HN+DlCWve+X4gQImy8Ckg+LnOErEJ9yE5xh+Jf/N10LYHFe23+qWePhFpddlOMsnPfL0IIES7eBATluXcBhazq+RvfMX/DSVK5MfmwOZ8kFKYIaalJoxDiGV4EBFVWEx+/e4lKJL64FIw2IB/0BiXMvj2UAiISzOcjhAgD5wISQL6jFo37GJLFaE//3rOYzCEiusEuhPiFUwHJx2XldZy4/J1gjlbnn2MQjXXAM3nv8XLlqfppCSFqnAiIx1vliyaC8DaSieMjIX8GMXadQ5KICCEWWBcQiMej40qrQXSf9didWCIihLArIB7EYxDCsYwnIZGICDFwrAmIY/FQY8Dfoa1Lh3kmiYgQA8amgNw5ynncojV5MjmOvuCOzbUj8ZaICDFQrAiIo2qrAg8vlZauIR+XH+GR2EYiIsQAoQuIo3seNwhZyet4AdwjmTjwRvZ12VCIYUEVEAc3zNXoryMOhL36bg4lIkIMB5qAIO7+yFpvBTM8oOR1dMRBy3x9R0IMiFeMRRpddW1xW4yyfT2Y+gHPbb9FG/qu7AXS40wI4QCKgFjuqntajLJTS2sPDrRyOTTG2AoDHiF5L4RInN4hLIuxdeU7LGO5Wu5QFXJCpE0vAUFM3UboSglZR+Tj8gPujLCpvsNdhR2FSJfOIaxGg0Q2Eg+H4Pa+jRChLfsQQgRCnxyIjbyHxMMDuARoQ0SOUNothEiQTgKCsAd79KrEwyMWReQaVXpCiMTYWkAQumK3x5B4BABE5Iq87I6lHIsQwjNdPBAbF9FOJR5hUIyyj2hQyeQIBRdCiITYqgrL0m1z5434EFKpHmhvIIbNcFyBP9+MMdOhlqLm4/KRHKYs0C9LVVlCJMK2AvKj+kH8/bcuLwkioXu2ZWPB6oH32RhzM6SHn6V5LlfwcIQQCdBaQCzcF5gVo2yfuN5aSPMxFkIypAcgOvk+kkOWu7gNL4SInFY5EAuJ8znaaVgHbTUYJ+nFZ5CPyycIUvIgL3VOXtbFfBIhhAPaJtE/kE+hpy7CQWjVwX5gLU7l+bi8hrAmDfJTzBzVCTwbIUTkvCggeEieEX/njYv+Vg6mIlai+jSQ6qJzJMFZqKxXiARo44EwvY/Cwj2DZ6DBo4sb0Is29vm4vEv5shy8RWaxw8FQwoBCpMxGAbHgfVgPXeHBZHuk7jJH8EZc/15noJz5hrjke+JaQggPvOSBML2PW0d3Knw18NtB246nhGP8VyiAYHCSstcmxBB4SUBY3sfcQjXPM3DPw/dDaQ/eyMfUkuzwHpnfoyqyhIiYtQKChzHrAXjl6BJeSA+kSwhJUrF+VGWxPMmj1ERWiCGxyQNheR8FZk5YBWEj397HMjlKfu8Se1CyCiF2HBU7CCEssFJA8DBmxfGtV12BkMtpq9f2I5UkO3JZrFJsZpGGEMIh6zwQpvfhqlHiG0e/pyt1kv0xkeQxKxeSpxbmE2IorBMQ1mnelfdhyE3/bHIAbyTqnlroZ8U6HKikV4gIeSYguFnNiNe79D6MhRkltrnMx+WPyE/fn0nrhBx+FEKsYZUH8o60tkvvI1bqJPskxiQ7mi0yKrJ2BtISRoikWCUgjI08JyZZXTFFXN/HzI8ThLVifIiyvBDWwUUI4Yg/BIQYvrqNcfgSyo13PYnfDvpqRZVkR2NMRqPFGMVTiEGz7IGwToGsU6lzKuErRtkx5pX4GHx0UN9k9/C7u/KFsIbCWEJExrKAMBK6sxQmzuGuwz65gWBbmsOrYqguYxVLhF6KLYRo8EtAiDe5GafRIIA3cg4hmXl4CXVfraCHV+HAwPh85IEIERFND4RVThpb8vxFilFWz2/3lWSPYXgV4+CQx5T/EWLoNAWEET5IIny1DiTZ9z2JZOjDq1ifScz3YoQYFGwPJJnw1ToqgUSS/diTNxLk8CpiGEt5ECEiYSEgyH8wYuwuBkYFAcpXdz0m2eu+WiEl2b8S1gjp/QghNlB7IIxNW+Bm8mBoJNkPPSXZDwIbXsU4QEhAhIiEWkBeE9YajPexTDHKpkiyM0e+bkMQw6tYI4t9vw8hRDuYHsh3whpRU4yyj0iy+xDTUIZXyQsRYiAwBWSwHkgTJNkPjTGnHpPsPzCS2AffCGv8Q1hDCGGZVzit9j6xDi3/8RJoZb9LvKW9DdX3OfHkjTDsQB6IEBHwSt6HPZBkP/XYV+sIYS2XIsIQkBDvuQghlnjFGh5FWCNZkGTf9TQjZc+liJAukkpAhIgAlgfyL2GN5PGYZK++42uHv6/3+wvsfosQYgWVgPyPsI5CWC1BX61DD321Thz20mK8rxDutQghNsDyQMSWeBpe5aqrL6OkWwIiROCsGmm7NawLZEPDw/CqHONzbcPwQHSwESJwKAIi+uF4eNWZg9+hkm4hBsArQhfe6Gafh4jD4VW5EtRCCAYMD0SnTSKOhleFPJiqRrfRhQgchbACpTG8ykZ+yfbMDV0mFGIASEACptFXiz28yurDuRhlCmsKMQAkIBFgYXiVTvdCiN5IQCKhkWQ/9v1ahBDCSEDiAi3aJ75fhxBCVPzl+wWIl0HZ7TWh5LpGOQohRG8kIAGDtiMfMLKWidXS63xcKscixABgCIh6FlkAc8EnlhLetu/uMF6z7hcJETh/IZzRRwR0q5kITu/Xli/7McbO2ub/fL8AIcRmXumkFw75uPxgjHmyLB5zlAXbRF6pEAOAkgOpTs2kSXSDBEnyiSNvzsWMdnmlQgyAv0gVObnG2m4PkuSXSJS7oPquPzv6XX3RiAAhAucVafiPqm62BNMBnxyKR8VnR56i7V5bQogAYJXxSkBagiT5hHinoy0zzGR3ASMHotycEIHzihQqeE1YI3nycfkRXodr8Zg7boHSOweihoxChA8rB6Kk6QZwp+Pa0+dUfb+HroocSMOq5H0IEQGvilFGmd2AhLBoUH0m+bicGGMePYnHDOLh8oHMeJ/yPoSIgLqZIuN0Ki+kARof/jDGnHh6CTcexMOQwpkxXHQUYvDUSfQZIRF+oNJLr0nymuq7PC9Gma/vgvG+VRIuRATUAvKdcPt58KWbSJKzGx+2ZY4yXVeVVs9AGFM5ECEGQi0gU8KDz9eJ2zuWGx+2ofr+TgPoBkCxAQ9hNyFEB5ohrN7k4/LIQZ+lYMCJe2K5d9UmCoSrQvnM3xHWGHwYVIhYWCTRUXPPOL0OJoyFxoc/PIrHjTFmPyDxMCQPRAl0ISKheRN9SqgYqh6m5z3XCBoL0wG3ZYZwVVBhHnwujBCePBAhIqE5E51x8stJF8mCA3c6rj3dJDdIkp8Xo2w/NPEA7xmLeKweE0JsSVNAWKEQyoMkJDw1PmxSfTe7xSi78fT728AI5Uk8hIiIXwKCPAjjZOsrJ0AnH5eVR3VnjLnzVGFV4DLgcci9oVCFxvh8vhLWEEI44tXS/2acAHOc2KPG0XTATVwhSR7DqZzldcbwXoUQYLmd+xdSmOY9MSTmFM+NDw0eoueB5jmegVJmRruWIpb3LIT4yR8eCDYwo5z3CC09YqJOkvtqfDhHdZWP/lV9YPX6ivLAIcSQWQ5hGeJGPiOt44o9j0nyWyTJXcwrZ8P6nr+Q1hFCOGKVgLA28olavL9InSQ/DTlJvg50HGZ4mgpfCREhzwSEGMbacXyi990HaluuilG2G0mSfB2sxpHyPoSIkFUeSMVn0vpnDr2QWE6wU4SrvHXNZUD0PgxCeEKIyFgnIKwN7dILCb2H0mIuOZLksXlLq2B5H9NEPg8hBsdKAUE8niUiZ44qskKu4rmB1xHya2wN2ftgebtCCMes80AMMS6942LIEk6xoeUT6pnk5zEmyVeBkOQ1abkiFVEVYoisFRAkd1kP5BNc0LNNKMnYZuPD0EStLx9wKGAg70OIiNnkgRjyA5l1al0L7lH4fmDfowVJyI0PO4FOyyxvkhkmFUJ4YKOA4IHMSnDuYWa4bXzNIymQJD9OOCk8Ia71OZWwnhBD5SUPxKCpH4tL2/NCcI/l1ObvWEGI0wGpQPxZ390cn5kQImKyNv9P+bj8Qay6mRWjbJ+01lrycTkh9mlaR1SND7sC0X8iLnkV+z0YIUQ7D8SQvZA9NC20SjHKTsmvu0mdJI+t8eHWoOqKGbqS9yFEIrQSEAvJ6Q8uZobglHuMhxaLGKYDMmG3tlfuQ4hEaBXCMr/nZDwSf/cceQPrCefG3YU+Ia0C7dZ9V3k5AxcGmd5HUYyyXeJ6QgiPtBYQ8/OBckee0FdftHNyIsWN+Eu8h7Z3GSqP42ukrdY7YyHvYVCllmyhgRBDY1sByfFQYTZIvC9G2TFxvVbAo6r+/LNUIFCJ2XeI23SI4RZL33P1WR4S1xNCeGYrATG/Z4Wzk+C3SHoLzyDcZ2Mq427C92OEGCRtq7B+geQxu/LoBMIkPGJRPK4kHkKkx9YCAmx4C9dI2gp/3FkQj5nufAiRJp0EBHcfbNyxmEhE/ICLlzYaXio0KUSibJ0DaZKPyycLJ1aDctlBVT35AmGrO0vicT6g+zJCDI6uIawa9iW9momjxouDppHzsCEeU4mHEGnTS0CQGLUVorhEWEVYAKW6NhLmph7fa2FdIURA9Aph1aC3la0qqikuoA3uPoYtcEnwkXzPo8nhkG7sCzFU+oawFhSj7NziIKdFCxXbbeCHAooU2JcEm5xLPIQYBhQBAcfE4VPL7EFEVKHVkXxc7iAkaDMseKu8hxDDgRLCqnEQGjEYg3qukFZ78L1MLOU7apzMeRFChAPTA6nvh9hOni5CMOhlJV4A1Wy2yq1rFk0xLa4vhAgQqgdSY6EN+Dpu0CZD3sgSjrwO47ItvxAiLKwIiHErIvV0QF08/H234wPa1ttmjoqrpKcyCiFWY01AjFsRMagCuxpyBRA+72vLOagaiYcQA8eqgBj3ImKQZB9U91d8xpdLc01sIvEQQtgXEONHRAyE5HPKDzkPwmEkHkKIGicCYvyJiEFo63Mqo1SR46g+yzPHwmEkHkKIJs4ExPgVEYNLjl9w2S268BbKlt9DPHwwQ0uZ6D47IYQdnAqIcXfZ8CVmEJP7kB+I+Kwq0Tjy4G00mcHzULm0EOIXzgXEuL2j0Ibq4fgV7ce9VnAhPFV5Gu/w06do1GhevRBiJV4ExPx+WE5wug6JSkS+QVhmNj0UCGn15zUEIwRBbaKBUEKItXgTkBq02nBx6a0PUySQv+NnM4k8WxXawbyN2oPYaYjDm6X/HSJz5DsGe6dGCPEy3gXE/E4Q33nOi4ifRD9/BZ5dDpH+pyHkey1sbAYBrQ8MBf6sPCiI4SC7ek4QAmLCDmkNiehCVo280RtsZJtNNgsI7HfkzFTOnCiyq3YEIyA1jttxiJ9UBnsai+HiJHiEYgOfocB6439N5Z7RkJFdbU9wAmJ+5w+u5Y044aoYZR99v4iXgE2coKw5hOq0ZebGmGqzf1HuKB5kV/0IUkBq8nF5BCEJ8YuNnSm8jmDvwZjfNnBmOYTApvpMP6MEOtr4dsrIrjgELSDGfXvyIVAg1xG0a+ypzxebeaMnW9BCPRRkV1yCF5AauJqXHlt5xM4cBhd0uCqRDb4KDT/ziOzKDtEISA0SXdeRuZ4+mcPtvQn54YVS7kmCG7xJFN9FSsiu7BKdgNQE0FwwdKJ4WMGznAzsQFAg/xRcUjQVZFduiFZAahqhrSOV/i4ILtG2jnxc1rmtoX5v99jwQX9PsSG7cmdX0QtIjec5GSEQzdyTgZ4O1zHHZg/+ewsd2dUfOLGrZASkSSO8lbpXEt2ME5RPThL/XrpwU4yyc98vIlZkV2uxaldJCkgTGNa7hMSkaFwsiuLmeE0+Lq9Rki1Wo7krHZBdvYg1u0peQJpATN4EMKBpW6aNmSVRiYb5HV68U2ihFRob3BLZ1VZYsatBCUgTxEubzdJCaq9ezyTxPuSqL/ic7wL7fENnjsuet75fSKjIrjpBt6vBCsgyyJs8Ov61dYvnb43WzsmcPAMZXxwzpxKR58iuekOzKwkIIApILQr13/+v8d9qbyLqGQBtCHiTb/Lo2sx1cI1EpIHsigbFriQggCgg0c3UYBPIJp82PLtim1BgY5rkQWPcsM/3IhGRXdmgt11JQABRQO6LUXZMWCdKPG7yujrtm43ad7yvujzcR9x90CIiu7JGL7uSgACigMyLUfY3YZ3oQFXMk8MKNy+zEjzOkBikiMiurNPZriQggJxE308pGd4GbPJHR6eoYPp8OZ4rMbgSX9lV2Hb1ys7rGTzvfb8AD0wcbPLK0K+MMbvFKPvoe5NXFKPsvhhlh9UGfCGRymDxMMVDdSjIrgK2KwmIHQY1ijcflx8dvOebkDb4MsUom2LDnzaq8Gyw46Hc3Auyq/DtSiEsYOEeyGHslwDb4OD+zAwx2mjCNjjJXVpur5F07yzZ1XNCtCsJCLBgsLfFKDslrhccMOgfFitjrkKfoLgJBw3+jlPs4iu72kxIdqUQlj1OUFWRMraMuE7qRbvJDeLYxphdnHZtMEk0HyK72kBIdiUBscul7xdgC5yCbMSnZ6hiSyL8V4yyeTHK9iuP1MLyO3jYJoPsqh2h2JUExC5JeiE4ndh4cNVtp6OYbbINCGfayFkc4aEbPbKr7fFtVxIQ+6TohdgYF3qf+iwMtLixkRe7TiSUJbvqgE+7koDY5wTtCpIAHhW7CmRajLLjlDd5DW78sje7je/EKbKrfviyKwmIG659vwAi7BDDzBgzqN5h2OzssMNZ5F6I7KonPuxKAuKGg3xcRn1CNL9LnZmtFYrUwwvrQNiBmQDdifWgIrvi4dquJCDuuEwglMXM58xRbz64TV6DBCizFDPWog3ZFRGXdiUBccdOzHX7Fk6J5zHdArbIIblFxRlxLevIrqzhxK4kIG7ZizXMQG4QeTvEtuSrwEmZmfw8ieyQIruygCu7koC45yS2fEhjTgGDwlLderTgZjFriuUO8buyiuzKLi7sSgLih+t8XEaxyQHztZ4POT69gStiyCGWMJbsyj5W7UoC4o9JRCLCCjNMU2z+xwAPP9YJOkduIXRkV5axbVd/kRYW3ahExIQct0U7A1ZlTxLdiRF6OcDn8gbhk38xD79zAreyg3xcviclld87GETUGdnVc2K0KwmIf0IXkXekdW5j70WEJOL1htDLZT4upz0rga5IG/0o8Aer7ArEbFcKYYVBJSKhdlVlNeq7Iq3jBdzheWoRtz/AeNBO4Ul0i2V4DjuBN1mUXSVgVxKQcDjJx+VTSCWYMBTG64n6lIhN/rhFyKW+89P1xPe5479bhnXKpyK7+kkKdiUBCYvKoH4EdHJ8Q1rnC2kd5zQ2eZcHXqeLo0gIMx6MoSbSZVeJ2JUEJDwqw7jLx+VdAN4I4wE0i3WIT89NbnCy7HoYYDwc80Db58iuErErCUi4HMEb8TJ+E+LFePhEeUokbPKarqWqrKKKoLwQ2VVadiUBCZsdVGD88HBnhPXgia4+n7jJTdfPEbF9Rk+n14Q1mMiuErIrCUgc5Ih7LjwSR6EtxilxFluSk7zJ+8I4ZQflgciu0rIrCUhc5Gh9/R9yJDaT7YxE51fCGs4IbJMbUtllHkAurYnsyj80u5KAxMsRku0lxOQDOWHKWCuaJKfFTd7nBvGM1McopES67IpDEHalm+hpcFRXZeTj0mCD1W0QuhpLb4OPpUrG8gmx72cwJVy62wvooSu74hCEXUlAuFwZY/4JoJ12CHHvKIb6OAgv9L289Z2w0a/zcRnrHJplZFc/CcGudiQgZIpRdgovwLeI+Iay0XHrdq+xEadIovZ2wR1s8htCsndKHvkaO7KrcOzqtQTEAhKRBf/2+ccYunW2os3DJf77bZ8ZEA42efUwYrTRjqrayAGyq3DsSkl0W2CwfcjdUG3T6aSYj8udfFw+oTvpph5BJ7houXVS1sUmx0zq3sRWruoA2RUBkl1JQGyCFu375OH2sbD1e0a56eMWlTo76FDaerO72uTk6XhDtJ91yK549F1rTwJiGZTM7QZUBRMyHzqUebbe7JFuchNL4jhgZFfr1+2FBMQB1RdfjLJDjJYcxGly21JLnBK7JvVe3OwRb3LRQHYVFhIQhxSj7AYhLXkjz+lbcLB2sw99kw8c2ZVFJCCOKUZZAW/kdCjeSEsYTf+ebXZt8sEju7KIyng9gUH393CvP/h+PQHQdirbS9Sbva5WGfwmHziyK4vIA/EIciPnSLKz+vQHgecGfnXVjTZ5YsiuwkICEgAIa502hCQK43mBbate2JVGO9rkSSK7CggJSEAsCcn5wG4hf/f9AlriY5OH0NssVmRX6+ltVxKQAEFo66YYZbuo2rqJ0CvZNvZ8H8F7jO6EmCCyq3CYSkACpxhli943xSj7uyEmMVws22qjY/Nc2Xs5vfGyydH0T/xGdkWAZVcSkIhoiEklJJWgHGNzTAM8ZW1dPol7MiEWE/g8IbKqiFJBdsWBYVeFyngjBUZ3jz8LUKGyB+OoDeR1x6Rf3xNKp8lzAXYy9h1eoGz0gPJpsqufpGBX/0pAEgLGSLnlno/Lsu8SlaB12SABbXbfm9yQZohXXus9YZ3eyK4WpGJXM4WwxDoYeZbOp01Uo/kMO4SwyQ2pAisU78PIrtKyKwmIWAfjofOu1wvwt9mD2OT5uOw7cnQBOkKHguwqIbuSgIh1MOrne59yPGz2IDY5YIQZQmvcKbvyD82uJCBiHYwHT95lstsyDjd7SJu8gnFSDMn7MLKrIKDZlQRErGTbuQsbeM9YxMFmD2qTo06fUSnzjbAGDdmVX9h2JQERm2BsdlrFi8XNHtQmB5QHZIAhLCO78grVriQgYhNfCWvs5OMy5M0e3CbHfR5KmCGk99VAduUBG3YlARGbYJ1ez0jrLCBu9uA2OfhA6vjKeFDbQHblB7pdSUDEWlD+ySi73GP3dCJs9ttilO2HtslxSmQ9GIO4PLiM7Mo9tuxKAiJegvUQuiSt84sem/0W/zZEWKfEIrD7H8vIrtxixa4kIOIlPpPWOWBdYGrSYbMHu8nJp8QvpHVsIbtyhE27koCIjRSjrCDeJbgmrfMH2LjHL4RF5ugJFeQmB5fEaXchdp/9hezKKdbsKiMtGj2IpT72XOaqGGUfSS8pGFDtMiEtZ/Uzwml0r9H2+zuqRoLMB9TgYtwTablpMcoOSWtZQ3ZlH9t2pW68og33OOUxTjGX+bi8txWfx4YOelOvgfUgNcTwkG1kV/axalcKYYkXQUUJ86E0QVxW/Dwlfuw652IFRein4hrZlV1c2JUERLTlhrjWnq24dWwgdMqsJAp5fOsqZFcWcGVXEhDRCpwWmYnZE+ZN4hjJx2VujLkjLlmdEoNOni8ju+Lj0q4kIGIbrsiz1yeMrqoxglDLHbE6xkTofdTIrki4tisJiGgNSi/ZCdrHoW12bPJHYnzaxOh91MiuOPiwKwmI2JYb8mlxZ4Cb/Zq8yStCvofQBtlVf5zblQREbAVi1ufkZQex2asTYj4uH5mtyMGUOGfDC7Kr7vi0KwmI2Bq4tOwHVtKbvRFeoDb/w6k9du9jgexqe3zblQREdOWUHHIw2OxPqVXRNG4D23iIXSGHkAqyq5aEYFcSENEJGJetqp9JPi6TuBSGh9YjaYzoMtNilDHvUXhHdtWOUOxKAiI6AyOzFXs/iTn0gLj0BK0kbDywkgldLSO7Wk9odiUBEX05thByqNlD6CGqBpVovPdkIanZ5DSx0NUysqslQrQrCYjoBapnbHd+vczH5Q8bcx+Y5OMyRzXMnaXQQs1NLP2uuiK7+k3IdiUBEb1BB1Tb4ZRFe4ZqI7HHmPYFG3xijPlhoRpmmWkxytjlrkEiuwrfriQgggJKMF3chD5ADNt7VU31wGlscBevZYbQzmCQXYVtVxooBTRQigMM3+UGrJvxfXExAxyN6o6MMe8tlU+uo3qf+4nnPdYiu7JGL7uSgAAJCI/qFOd4E9QUqN75CpeckoSFbVR/3nl6X4t8gIsHWcjIruj0titNJBQ2OLTQ1K0NOU6pi5NqPi7rudvf8RCoT1mz5YcAyjp38Kf6+z/46bvcU+LxG9kVD4pdyQMB8kC4WOoMOjQkHkvIrijQ7EpJdGGF6iRWjLJ9RwnQFJF4rEB21RuqXUlAhFWKUXaqzb411ebelXisR3bVCbpdSUCEdbDZk2y7YYF7nBBt3cJOBtnVVlixKwmIcALq+fcttqdIgatilB1LPNoju2qFNbuSgAhnwHXetdgoL1bquLQKMDogu1qLdbuSgAinIAl6iOlzOjX+DC3sxj5R0Deyq2c4sSsJiPACWnbvD/jUWD3kjhWy4iK7cmtXEhDhjWKUFTg12phCFzI3OB0m3VHXF7Ird3YlARHeQSJ0F5PoUt7wU2zwc3kd9pFd2UcCIoIAMeyPCD+kVt8/RTLzcKjNEH0hu7KLWpkAtTIJC7Ss+GCMObM0utMF98aYz0qQh4PsiosEBEhAwgQb/ggbPob+R0Vjg8vbCBTZFQcJCJCAhA9mJpxh49sc7bktc2zur0qMx4fsqjsSECABiQu0ya5nKfgYRTpDDPpbqJtbbI/sajskIEACEjeN4TyvcYpkhiXm2Njf6g2uKqphILvajAZKiSRAQvGPpGJjmM9eI2H6z4YwxbfG36eNdcVAkV1tRgIikqXRtjqJzSrCQHb1G90DEUII0QkJiBBCiE5IQIQQQnRCAiKEEKITEhAhhBCdkIAIIYTohARECCFEJyQgQgghOiEBEUII0QkJiBBCiE5IQIQQQnRCAiKEEKITEhAhhBCdkIAIIYTohARECCFEJzQPRCSLBv8IG1w89LerT2/TsCuNtAUaaRs3Gj0qbHDx4NauPr2Ny67kgYgogXdRbex3+GmTHfyOg8bvn+E0+a0YZfeWf79wBLwLb3Z18fDbrj69Dd+u5IEAeSDhk4/L6gR4Zow52hAu8EF1aqw2+1eJSXxcPIRvV6GKiQQESEDCJB+XO9jYZ+TwgS0KY8wXY8xtMcoK3y9GrObiIV67+vQ2HLuSgACSgNwXo+yY9JIGDYTjAzb4ju/X05HbatMrER8OEI4k7CqERLwEBOCB9V/PZabFKDskvaRBgjDVpTHmxPdrITKFd+p9ww8VhKmStCufQiIBaZCPy7LnEvNilP1NejmDIhGP4yWqjX6q0JY7EvE4XmJhVz5CWxKQBvm4/EFIov2tEs/tyMdldSq8TniDL3MDj0R2YpGLh2HalctSYN1E/xOGgseQkAuCfFzm+bh8NMZMBrTJDU7EP/JxeeT7haTIxUOZXzwM164uHtzZlQTkTyQgjsjHZWXsTw5q7UOlerDd5ePyDuE7QeDiQXZV2dXFQ3mH8J1VJCB/8i9hjTeENZKleljC6xhSaGETR/BGhvrAo1A9LOF1yK5+cgRvxKpdSUD+hFHNoAfBGnB7/Ic+o2dUD7zHfFzqDlEHcHtcdvWchV1dPNizKyXRG5BKeSv2i1E2I6yTDEiUT3y/jgi4R6WWEuwtQKJcdvUy96jUotqVPJAG2LSMPIhOQg3ycTnRJm/NEbwRhWFe4OJBdrUFR/BGqHYlAXkOI4z1nrBGEkA8Urq85YI9Y8wTQn5iBRAP2dV2LOwKIT8KCmEtQQy17A75whhO0I+qSutF5REfKhz6G5ygZVf9WNjVp7f97UoCsgRaafwgLHVejLIbwjrREZB4FJiz8B1/rwV9tpxjaFRB1YOC/sFP3+9BIgICEo+1drWcY2hUQQVpV31FRAKyAtKN9KIYZbuklxQV+bh88rRBCoQgvzKHPjWGVb3z9L4kIj8fxkHYFSsR3RhW5dWu+oiIBGQF+bi8xq3OvhwOrYGeh5zHvNH11voDFh7qEfJcLjf9HNV9gwyLesh5zBtdb63bFZo9erOrrn20JCArQIuJO8JSg+rO61g8qk39uRhlt45+3zPgmbx3/J4Ph1bi61g8Fnb16a0/u4Jn4tyuunhWEpA15OPyP9KN1kEk0x3e8wiuNbrjFvSDOpQ4vOfhvTX6Mo5b0E8/vd3eriQgayCepm+LUXZKWCdYUG76ZPnXFChMCHK0p/ktJBMH94BuilF2bvl3eAflpk7sKtSRsea3kDixq09vt7MrCcgayA/FZG+mo+Lqh+X+Q1GNCkYI9NryfO3jkMW0L6i4sm5Xn97GY1fosmvdrrYRU10kXAMe+KzQ0zVpnRC5s7jJZxDfaDa5+Wk71QbcRxLWFhN4PKli3a5iEo8KPNit2xU8nlZIQDbzmbTOQYrdVtGS3db7uo25dLUYZXOELk9R6cJmJ9U2HmjJbtWuXFRW2eDT22z+6W04dqUQ1gbI4ZkCp+kkKmhw+n2ydEo89VldxQbh0DtLoYekLqzi9GvNrnxWV7FBjsiaXX16+7JdyQPZAB72rDhzXVGRCjamvdV3HZLZ5OZ3OHQfoRM2l4mFsqzZVUriYX56I1btqk0oSwLyMlfEtT6kEMpCyS77fSR92xqHkUNSs84myYSyULJrxa5iDVm9BO5ueLMrhbBaQL4gF3Uoy1LVVdLisUw+Lu9w65hJ1F0PLFVdJS0ey1w82LGrTXdj5IG0g+mF5JGfGD9IPHpzaiHsELNNGVt2NRTxAM7tSgLSAtwkZ8ZPj1DBFBWItZ+Rlx2aeDTDWcz3nSO0GB2ItdPtamDi0QxnUe0KocWVSEDaw/RCKq5x4SwmLsmnxNOhiUcNROSYXIoZa5EG3a6GJh41EBFndiUBaQm8ELaITGKZOofcB/OEe5tatdW2wKaOiUtG54Ug90G1q9SqrbYFnXWpdrXOC5GAbMcN8Xa6wanrMRIRYYbcqtNh8r2c2oDEN/NgEpsXIruyABLf1u1KVVhbQmz13iToRLKFyqtke4N1hTyEK4o+WRYqr/aHGrpaB3kI17M+WfJAtgQbk705Q/dEjoib/ErisRJmx2Z2QtoWVLuSeKzEql1JQLphow9NyCLCeiAVsTVGdAVEldWS5CCS2+k0u4qtMaIrIKo0u1q+nS4B6QAqaGzM+KhE5CmkRCgeRCxRU3x6M1fEg0kwNrQKPIhkV26wZlcSkI4glGWr2mOCuewhwDolTmOIy/sEBxNWB+j3pHVsQbOrkIdBhQBKe63YlQSkH+eWGpkZ9M16DCAUwbqrwi6BTpUb0mkxDzQcWiO7cgvNrtAFeIEEpAeNUJatvlYHCGl5uXCIBxBDwGYx92lyCdkLCfKiKh5AFLsKaYZ5yJC9kF92JQHpCZKfNmee7xhj7vJxeefBG2F1RmUZ7lBgnRbfEdawgezKD3S7koAQQGzfdiLvCN6Iy2oTxgNoPvQb59tCnEOzhzs8oUGxq6HfON8WeCEUu8IdHgkIC0yFs23QOxgg9MNRpRbjpKhN3o0vpHVCnD8ju/IH1a4kIEQwA9uFYeeo1LImJMTBVyyDHRTIGTHa5rwhrEHj4kF25RPkjGh2JQEhAxFxdSO2KSQfyTkSxkYvdOu8F5RwA2ENJhS70q3zXtDsSgJiB3ZP/peo563/QLL9hBD7fk14XaqQ6cc3whqhhbBkV/6h2ZUExAIW51+34QhTxP6DmHzoeB+A4c18JawxWFgXLwO7DyK78gzr4uXFQ7n3F2Mh8ZxaRMjz1LflqK7ZzsflHF7RN/ycv3A3g/HQ0UmxP1OCF5E79og3IbsKA4pdSUAsU4yy03xcmgB6E+3AYH4ZDV6XQVKNOefEIP9BvWCJ/klHSODVIbo5RPEeg3Ssg+E6b5ZO0/VrYD+ovxE2+p6FDtILUM65h+9jkzi8JnXeLVCOKvpBsSsJiAMgIt9eGlDvkZwUWmhCfZBePCx6g60bPlSJyvXFQ3nz6W1m7T7OxcOiI8D1ms+q2oyXFw/lFCNVWWLGWOcfwhp/gNvklx5uu4fiScUOxa6UA3EELtMdWmx7EhrfGYtUJ1wMxWkzue5D9f9bX3JiAgG7ayG0i/YzzX5BPWFsdOrhAB7Yk6dWKRS7Ehy7koA4BDmH/YGcolgn8Lst4+Z77ImReGBuM3p1MdtleXZCF0LrIYbPwqcn7SRMmTqsHmISEMcUo6woRtn+ALqI9t7oeFh1idMe4N/2BiLQpbX+TkAhS0opL7wq3+9JAhIOBxIQT2Ay36E2xEZWDvJ38G+bnPVI/h6QQlmheCGhzKgRHHrblQTEI42QFmvkZEj0CtMRWn7npId33zh/kC3VtwWeWAiXEocQ/o0GCYhnilE2L0aLyqH9gE6avSGU8DIeVow1+uYxgupF1YMgLiOqhDcsJCCBUIyyWTHKDjFbRGEtzp2BXmvYqOaKmCAERISFBCQwUO67Tx6ELzqg064Qm5GABAjCWh+NMbsDFhJGOI+xRt/PPhVvUrkH8QwJSMDUQlKMsr9jC20R5onMej6856SHXl8RYnQ+DYEgBIQ4T0QQkIBEQjHKbotRtovS39vUvRLC+M17Ugiqz9ztgjR21Xv+Aa1ZkinyEAt625UEJDKKUTbF0KpdeCVWmuQRYCSgzzsK5Zw1ox43drt+xqy+XH0/S5b3YHvufxtU2MCjt11JQCIF4a3KKzk2xvxtjDmGZxJKmKv36QYexLb9wxb/hpwA7zJl8oYxd4E0ZZLyWaDT8CljrR5498ZSgNFmp7IrCUgCQEzuK88EYa7aO7n1GLumdIDFQ6vtjf0C4kF9zw0hayMIc3TjZZ3WgxEQ8/OzuPUsIvTOwgOFYldq554gxWgRr77FnwWYSpfjBPe/xknORit3wzwpQhB20d/qbMXa1X//TMo3rHsN1UP4GEncM1xSbIYACgjMZ/JcEkbSmNrBtvqcLx7Kmad27vJAOFDsKiMsIhIkH5dl3zWKUSb76kk+Lu8ID+nzYpRZaZezNFBqo6fz6W02vXjob1ef3squ+nLxwLEreSBiHfO+SbZ8XB6E1o48QhgnRWthTHhm23zHve2q8gJZ7cgHDMWulAMR62A8dFSz3wOEHRlVR0Hc4QCyK8+gySjFriQgYh2MC3DvCGsMGcaDkj6bvieyK/9Q7KryPiUgYh2Mk+IeqQx1qLwnrBFaqIdiV6Qy1KFCsysJiFgH68GTxDwM10B4GRVHoc0Ql115BMJLsysJiFgJwh6M0yLjtDNEKCN5Q/NAkHSXXfmDalcSELEJxsNnj9BYcYgwHpBFMeJeqiRBsSs1VuwExa7qy7oSELEJVidZnRa3IB+XR6TLnUF5Hw1kVx64eODblQRErKUYLXo5MSp4TpRM34oz0jpfSetQQY8wil0pmb4VdLuSgIiXYHX7vSStkzQI9zFCM3McAEJFduUQhPsodtVsEioBES/BOsXKC2kH64EYsngYpl3JC2mFFbuSgIiN4BTLag44Ia2TJPl40SySlRj+QlrHCjjFyq4cgCakVuxKAiLawDrNHiBBLJbIx4umhNek5YpIepDR7AoJYrEEml3S7Gq5B5kERLShz1jXZa7xsBR/ckmctsf8vmxCtSs8LMWfWLUrCYh4kcZ8EQY58USUBPDKPpCWmxO/K6tgborsyhLwyqzalQREtIUZUz9BvH/wwBtjxvBvA2ue+BJUu0K8f/DAG6Pa1aox0RIQ0QrE1Jlx9Wu0Kx86j8QQg4kofLUAMXWqXaFd+dBxYlcSELENV8S1KuO+G3I+JB+XE/KI1luEG2ODbldDzodcPPDtat2YZgmIaI0FLySvTkpDFJF8XH4gNrYziFGfE9dzhgUvZGFXQxSRiwe3diUBEdtySl6vOindkdcMGuR/2Anfz5HlPpaRXfUE+R+6Xa3KfdRIQMRWIERyQ172IB+XgwhnQTzYF99sfCdOQYiEblcXD+UgwlkQD+d2JQERXbgiNcNrcpR6OAthKxu3ps8j9z5qrNlVyiKCsJUVu9rkfRgJiOgCHlbskINB2OExxZ5ZSJjbuKdwH3jTxNbgYWXNrlLsmYWEuRW7ajZNXEdm4ReLgZCPyztLo0WrB8lxJO04NgKP6pFcFVNTfU67iXgfv7h4sGtXy+04YgQelVW7esn7MPJARE9OLYQcDEoxK0/ko4W1nYEb5j8sbfKK09TEA1i1q4uHuO0KN8yt2lUb8TDyQERfML/i0eKvmOFBGeJo1pXA67gktpFYxU0xyqIs220D5ldYt6t6NGsMwOuwblef3ra3KwmI6A08BduDfW6MMVehn7gbJbo2k7azYpTtW1w/COApOLGrtiduXzRKdK3a1ae329mVBERQsJgPaTJHS4Wb0IQEntglce7COpLMe6zDYj6kyS+7Ck1I4Ik5s6tt378ERFCwnCxeJhghQZ7jzMEGN3jfhzGF8/piOVm8TDBCgjyHU7vqEs6TgAgaEJEntJJwwRxDib64rNhCmfGJMea9w/dqkAuKolU7E4iIF7tyWbGFMmMvdvXpbTe7koAIKuiwy+4E2oYCm/6bjXsReF8H2Nw+ur0OUjxq0GHXq121uRexLXhfXu2qq3gYCYiwgUcRaVKdHL/hAbDViFd4GDk29mv89PleBi0eNR5FpMkfdrWNhwIPIyi76iMeRgIibBGIiKxi04bfC/D1SjwaBCIiq4jOrvqKh5GACJsELCKxIPFYQcAiEgsU8TC6iS5sgmqhfVzaEu2ZSzzWg2oh2dX2zJniYeSBCBegOuvOUUli7AyuVLcrqM6SXbWjc6nuJiQgwhn5uLy23IYhdmYQj6Aus4XOxYPs6gVmEA+6XUlAhFNw8W6i+PUzku5tZRtcvJNdPWer3lbbIgERzkGZ7EShhwV1viOJmR4+QZms7Oondb7Dql1JQIQ3MKHvcsCnxvuEW7J7AxP6Bm9XLtqxSECEVwbqjRQYQyuvwxID9UYKjKF1ZlcSEBEE6GY7cdwDyDXBNIEcCuhmOxi7ct0EUgIiggLzNC4T3PC38DokHB7API1k7cpX92AJiAiSRIRkjg3+uRhlhe8XI5IRkl929emtX7uSgIigcTxvg0WBkMKtPI4wcTxvg8Uvu/I9r6RGAiKiwOMMjrZ4mU0i+uFxBkdbvMwmaYsEREQHmjRWJ8h3nmYo1BTowvpVFVXxgyaNQdmVy4qqLkhARNSgz9aBMeYNNr3NkES9sb9XP9WvKl3QZ8uLXbH7VdlEAiKSAx5Kjo3/TyM00eYhMEPYYI4NPcf/baZ8xrCBh0K3q1DyGV34/wAAAP//NG4DOOirpt8AAAAASUVORK5CYII=;" vertex="1" parent="1">
          <mxGeometry x="351" y="50" width="70" height="70" as="geometry" />
        </mxCell>
        <mxCell id="1CU7VQPBwAnRF_aU25im-29" value="Microsserviço ms-ponto" style="fillColor=none;strokeColor=#5A6C86;dashed=1;verticalAlign=top;fontStyle=1;fontColor=#5A6C86;whiteSpace=wrap;html=1;" vertex="1" parent="1">
          <mxGeometry x="640" y="20" width="400" height="130" as="geometry" />
        </mxCell>
        <mxCell id="1CU7VQPBwAnRF_aU25im-30" value="Bater Ponto" style="sketch=0;outlineConnect=0;fontColor=#232F3E;gradientColor=none;fillColor=#8C4FFF;strokeColor=none;dashed=0;verticalLabelPosition=bottom;verticalAlign=top;align=center;html=1;fontSize=12;fontStyle=0;aspect=fixed;pointerEvents=1;shape=mxgraph.aws4.endpoint;" vertex="1" parent="1">
          <mxGeometry x="690" y="55" width="60" height="60" as="geometry" />
        </mxCell>
        <mxCell id="1CU7VQPBwAnRF_aU25im-31" value="Visualizar&lt;br&gt;Pontos do Dia" style="sketch=0;outlineConnect=0;fontColor=#232F3E;gradientColor=none;fillColor=#8C4FFF;strokeColor=none;dashed=0;verticalLabelPosition=bottom;verticalAlign=top;align=center;html=1;fontSize=12;fontStyle=0;aspect=fixed;pointerEvents=1;shape=mxgraph.aws4.endpoint;" vertex="1" parent="1">
          <mxGeometry x="808.75" y="53.75" width="62.5" height="62.5" as="geometry" />
        </mxCell>
        <mxCell id="1CU7VQPBwAnRF_aU25im-32" value="Solicitar &lt;br&gt;Espelho de Ponto" style="sketch=0;outlineConnect=0;fontColor=#232F3E;gradientColor=none;fillColor=#8C4FFF;strokeColor=none;dashed=0;verticalLabelPosition=bottom;verticalAlign=top;align=center;html=1;fontSize=12;fontStyle=0;aspect=fixed;pointerEvents=1;shape=mxgraph.aws4.endpoint;" vertex="1" parent="1">
          <mxGeometry x="930" y="53.75" width="62.5" height="62.5" as="geometry" />
        </mxCell>
        <mxCell id="1CU7VQPBwAnRF_aU25im-45" style="edgeStyle=orthogonalEdgeStyle;rounded=0;orthogonalLoop=1;jettySize=auto;html=1;exitX=1;exitY=0.5;exitDx=0;exitDy=0;" edge="1" parent="1" source="1CU7VQPBwAnRF_aU25im-41" target="1CU7VQPBwAnRF_aU25im-19">
          <mxGeometry relative="1" as="geometry">
            <Array as="points">
              <mxPoint x="900" y="317" />
              <mxPoint x="900" y="410" />
            </Array>
          </mxGeometry>
        </mxCell>
        <mxCell id="1CU7VQPBwAnRF_aU25im-46" style="edgeStyle=orthogonalEdgeStyle;rounded=0;orthogonalLoop=1;jettySize=auto;html=1;exitX=1;exitY=0.5;exitDx=0;exitDy=0;entryX=0;entryY=0.5;entryDx=0;entryDy=0;entryPerimeter=0;" edge="1" parent="1" source="1CU7VQPBwAnRF_aU25im-42" target="1CU7VQPBwAnRF_aU25im-19">
          <mxGeometry relative="1" as="geometry">
            <Array as="points">
              <mxPoint x="900" y="515" />
              <mxPoint x="900" y="411" />
            </Array>
          </mxGeometry>
        </mxCell>
        <mxCell id="1CU7VQPBwAnRF_aU25im-47" style="edgeStyle=orthogonalEdgeStyle;rounded=0;orthogonalLoop=1;jettySize=auto;html=1;exitX=0;exitY=0.25;exitDx=0;exitDy=0;" edge="1" parent="1" source="1CU7VQPBwAnRF_aU25im-41" target="1CU7VQPBwAnRF_aU25im-17">
          <mxGeometry relative="1" as="geometry" />
        </mxCell>
        <mxCell id="1CU7VQPBwAnRF_aU25im-53" style="edgeStyle=orthogonalEdgeStyle;rounded=0;orthogonalLoop=1;jettySize=auto;html=1;" edge="1" parent="1" source="1CU7VQPBwAnRF_aU25im-23" target="1CU7VQPBwAnRF_aU25im-29">
          <mxGeometry relative="1" as="geometry" />
        </mxCell>
        <mxCell id="1CU7VQPBwAnRF_aU25im-23" value="GitHub" style="shape=image;html=1;verticalAlign=top;verticalLabelPosition=bottom;labelBackgroundColor=#ffffff;imageAspect=0;aspect=fixed;image=https://cdn4.iconfinder.com/data/icons/ionicons/512/icon-social-github-128.png" vertex="1" parent="1">
          <mxGeometry x="470" y="45" width="80" height="80" as="geometry" />
        </mxCell>
      </root>
    </mxGraphModel>
  </diagram>
</mxfile>
